<svg width="357" height="164" viewBox="0 0 357 164" fill="none" xmlns="http://www.w3.org/2000/svg">
<g filter="url(#filter0_dd)">
<mask id="mask0" mask-type="alpha" maskUnits="userSpaceOnUse" x="10" y="14" width="332" height="136">
<rect x="10" y="14" width="332" height="136" rx="30" fill="white"/>
</mask>
<g mask="url(#mask0)">
<rect x="10" y="14" width="332" height="136" rx="30" fill="white"/>
<rect y="14" width="32" height="142" fill="#CF4037"/>
</g>
</g>
<g clip-path="url(#clip0)">
<path d="M107.619 86.7307H98.0835V133.078H107.619V86.7307ZM116.244 86.7307V95.3667H124.415V121.493C124.415 125.131 125.097 128.084 127.14 130.356C129.184 132.398 131.682 133.536 134.859 133.761C138.264 133.761 140.987 133.078 143.254 131.491L145.525 123.313V122.631L145.073 122.855C142.578 124.448 140.308 125.356 138.037 125.356C135.087 125.356 133.725 123.535 133.725 120.127V95.3636H143.257V86.7307H133.725V72.4144L124.415 77.1876V86.7307H116.244ZM162.1 86.7307H152.565V133.078H162.1V86.7307ZM76.2878 86.048C69.4784 86.048 63.8028 87.8687 59.2611 92.1805C54.2708 96.4984 52 102.406 52 109.904C52 117.175 54.2708 123.31 59.2611 127.628C63.8028 131.943 69.4784 133.988 76.2878 133.988C82.6455 133.988 88.0967 131.261 92.6323 126.038V125.811L87.4115 119.451L87.1872 119.678C83.7825 123.083 80.1504 124.9 75.8392 124.9C71.7492 124.9 68.3445 123.538 65.6219 120.586C62.8963 117.858 61.535 114.45 61.535 109.904C61.535 105.59 62.8963 101.951 65.6219 99.2264C68.3445 96.2709 71.7492 95.136 75.8392 95.136C80.1504 95.136 83.7825 96.726 87.1872 100.134L87.4115 100.361L92.6323 94.0012V93.7736C88.0967 88.5484 82.6455 86.048 76.2878 86.048Z" fill="#1C4882"/>
<path d="M102.853 79.2297C110.344 71.2796 119.424 67.4168 130.093 67.4168C140.532 67.4168 149.618 71.2796 156.879 79.2297H168L167.776 78.5469C163.464 72.4144 157.786 67.8689 150.976 64.2368C144.391 60.6016 137.355 59.0115 130.093 59.0115C122.602 59.0115 115.562 60.6016 108.98 64.2368C102.167 67.872 96.7192 72.4144 92.4049 78.5469L91.9532 79.2297H102.853Z" fill="#CF4037"/>
</g>
<path d="M298.802 106.707H285.161V130.293H298.802V106.707Z" fill="#FF5F00"/>
<path d="M286.028 118.5C286.025 116.228 286.56 113.986 287.592 111.943C288.624 109.9 290.125 108.109 291.982 106.707C289.682 104.968 286.92 103.886 284.012 103.586C281.103 103.285 278.165 103.778 275.534 105.008C272.903 106.239 270.685 108.156 269.133 110.542C267.581 112.928 266.758 115.685 266.758 118.5C266.758 121.315 267.581 124.072 269.133 126.458C270.685 128.844 272.903 130.761 275.534 131.992C278.165 133.222 281.103 133.715 284.012 133.414C286.92 133.114 289.682 132.032 291.982 130.293C290.125 128.891 288.624 127.1 287.592 125.057C286.56 123.014 286.025 120.771 286.028 118.5Z" fill="#EB001B"/>
<path d="M317.205 118.5C317.205 121.314 316.382 124.072 314.83 126.458C313.279 128.844 311.06 130.761 308.429 131.991C305.798 133.222 302.861 133.715 299.952 133.414C297.044 133.114 294.282 132.032 291.982 130.293C293.837 128.889 295.337 127.098 296.369 125.055C297.4 123.013 297.936 120.771 297.936 118.5C297.936 116.229 297.4 113.987 296.369 111.945C295.337 109.902 293.837 108.111 291.982 106.707C294.282 104.968 297.044 103.886 299.952 103.586C302.861 103.285 305.798 103.778 308.429 105.008C311.06 106.239 313.279 108.156 314.83 110.542C316.382 112.928 317.205 115.685 317.205 118.5Z" fill="#F79E1B"/>
<path d="M315.718 127.795V127.312H315.92V127.214H315.405V127.312H315.607V127.795H315.718ZM316.718 127.795V127.213H316.56L316.379 127.613L316.197 127.213H316.039V127.795H316.15V127.356L316.321 127.734H316.436L316.607 127.355V127.795H316.718Z" fill="#F79E1B"/>
<path d="M47.7812 34.2969L48.3594 28.625H54.1875V29.9609H49.5859L49.2422 33.0625C49.7995 32.7344 50.4323 32.5703 51.1406 32.5703C52.1771 32.5703 53 32.9141 53.6094 33.6016C54.2188 34.2839 54.5234 35.2083 54.5234 36.375C54.5234 37.5469 54.2057 38.4714 53.5703 39.1484C52.9401 39.8203 52.0573 40.1562 50.9219 40.1562C49.9167 40.1562 49.0964 39.8776 48.4609 39.3203C47.8255 38.763 47.4635 37.9922 47.375 37.0078H48.7422C48.8307 37.6589 49.0625 38.151 49.4375 38.4844C49.8125 38.8125 50.3073 38.9766 50.9219 38.9766C51.5938 38.9766 52.1198 38.7474 52.5 38.2891C52.8854 37.8307 53.0781 37.1979 53.0781 36.3906C53.0781 35.6302 52.8698 35.0208 52.4531 34.5625C52.0417 34.099 51.4922 33.8672 50.8047 33.8672C50.1745 33.8672 49.6797 34.0052 49.3203 34.2812L48.9375 34.5938L47.7812 34.2969ZM59.7656 34.2969L60.3438 28.625H66.1719V29.9609H61.5703L61.2266 33.0625C61.7839 32.7344 62.4167 32.5703 63.125 32.5703C64.1615 32.5703 64.9844 32.9141 65.5938 33.6016C66.2031 34.2839 66.5078 35.2083 66.5078 36.375C66.5078 37.5469 66.1901 38.4714 65.5547 39.1484C64.9245 39.8203 64.0417 40.1562 62.9062 40.1562C61.901 40.1562 61.0807 39.8776 60.4453 39.3203C59.8099 38.763 59.4479 37.9922 59.3594 37.0078H60.7266C60.8151 37.6589 61.0469 38.151 61.4219 38.4844C61.7969 38.8125 62.2917 38.9766 62.9062 38.9766C63.5781 38.9766 64.1042 38.7474 64.4844 38.2891C64.8698 37.8307 65.0625 37.1979 65.0625 36.3906C65.0625 35.6302 64.8542 35.0208 64.4375 34.5625C64.026 34.099 63.4766 33.8672 62.7891 33.8672C62.1589 33.8672 61.6641 34.0052 61.3047 34.2812L60.9219 34.5938L59.7656 34.2969ZM78.2188 35.1484C78.2188 36.8411 77.9297 38.099 77.3516 38.9219C76.7734 39.7448 75.8698 40.1562 74.6406 40.1562C73.4271 40.1562 72.5286 39.7552 71.9453 38.9531C71.362 38.1458 71.0599 36.9427 71.0391 35.3438V33.4141C71.0391 31.7422 71.3281 30.5 71.9062 29.6875C72.4844 28.875 73.3906 28.4688 74.625 28.4688C75.849 28.4688 76.75 28.862 77.3281 29.6484C77.9062 30.4297 78.2031 31.638 78.2188 33.2734V35.1484ZM76.7734 33.1719C76.7734 31.9479 76.6016 31.0573 76.2578 30.5C75.9141 29.9375 75.3698 29.6562 74.625 29.6562C73.8854 29.6562 73.3464 29.9349 73.0078 30.4922C72.6693 31.0495 72.4948 31.9062 72.4844 33.0625V35.375C72.4844 36.6042 72.6615 37.513 73.0156 38.1016C73.375 38.6849 73.9167 38.9766 74.6406 38.9766C75.3542 38.9766 75.8828 38.7005 76.2266 38.1484C76.5755 37.5964 76.7578 36.7266 76.7734 35.5391V33.1719ZM90.5234 40H83.0703V38.9609L87.0078 34.5859C87.5911 33.9245 87.9922 33.388 88.2109 32.9766C88.4349 32.5599 88.5469 32.1302 88.5469 31.6875C88.5469 31.0938 88.3672 30.6068 88.0078 30.2266C87.6484 29.8464 87.1693 29.6562 86.5703 29.6562C85.8516 29.6562 85.2917 29.862 84.8906 30.2734C84.4948 30.6797 84.2969 31.2474 84.2969 31.9766H82.8516C82.8516 30.9297 83.1875 30.0833 83.8594 29.4375C84.5365 28.7917 85.4401 28.4688 86.5703 28.4688C87.6276 28.4688 88.4635 28.7474 89.0781 29.3047C89.6927 29.8568 90 30.5938 90 31.5156C90 32.6354 89.2865 33.9688 87.8594 35.5156L84.8125 38.8203H90.5234V40ZM109.156 35.1484C109.156 36.8411 108.867 38.099 108.289 38.9219C107.711 39.7448 106.807 40.1562 105.578 40.1562C104.365 40.1562 103.466 39.7552 102.883 38.9531C102.299 38.1458 101.997 36.9427 101.977 35.3438V33.4141C101.977 31.7422 102.266 30.5 102.844 29.6875C103.422 28.875 104.328 28.4688 105.562 28.4688C106.786 28.4688 107.688 28.862 108.266 29.6484C108.844 30.4297 109.141 31.638 109.156 33.2734V35.1484ZM107.711 33.1719C107.711 31.9479 107.539 31.0573 107.195 30.5C106.852 29.9375 106.307 29.6562 105.562 29.6562C104.823 29.6562 104.284 29.9349 103.945 30.4922C103.607 31.0495 103.432 31.9062 103.422 33.0625V35.375C103.422 36.6042 103.599 37.513 103.953 38.1016C104.312 38.6849 104.854 38.9766 105.578 38.9766C106.292 38.9766 106.82 38.7005 107.164 38.1484C107.513 37.5964 107.695 36.7266 107.711 35.5391V33.1719ZM118.758 40H117.305V30.3672L114.391 31.4375V30.125L118.531 28.5703H118.758V40ZM128.094 33.6094H129.18C129.862 33.599 130.398 33.4193 130.789 33.0703C131.18 32.7214 131.375 32.25 131.375 31.6562C131.375 30.3229 130.711 29.6562 129.383 29.6562C128.758 29.6562 128.258 29.8359 127.883 30.1953C127.513 30.5495 127.328 31.0208 127.328 31.6094H125.883C125.883 30.7083 126.211 29.9609 126.867 29.3672C127.529 28.7682 128.367 28.4688 129.383 28.4688C130.456 28.4688 131.297 28.7526 131.906 29.3203C132.516 29.888 132.82 30.6771 132.82 31.6875C132.82 32.1823 132.659 32.6615 132.336 33.125C132.018 33.5885 131.583 33.9349 131.031 34.1641C131.656 34.362 132.138 34.6901 132.477 35.1484C132.82 35.6068 132.992 36.1667 132.992 36.8281C132.992 37.849 132.659 38.6589 131.992 39.2578C131.326 39.8568 130.458 40.1562 129.391 40.1562C128.323 40.1562 127.453 39.8672 126.781 39.2891C126.115 38.7109 125.781 37.9479 125.781 37H127.234C127.234 37.599 127.43 38.0781 127.82 38.4375C128.211 38.7969 128.734 38.9766 129.391 38.9766C130.089 38.9766 130.622 38.7943 130.992 38.4297C131.362 38.0651 131.547 37.5417 131.547 36.8594C131.547 36.1979 131.344 35.6901 130.938 35.3359C130.531 34.9818 129.945 34.7995 129.18 34.7891H128.094V33.6094ZM145.43 40H137.977V38.9609L141.914 34.5859C142.497 33.9245 142.898 33.388 143.117 32.9766C143.341 32.5599 143.453 32.1302 143.453 31.6875C143.453 31.0938 143.273 30.6068 142.914 30.2266C142.555 29.8464 142.076 29.6562 141.477 29.6562C140.758 29.6562 140.198 29.862 139.797 30.2734C139.401 30.6797 139.203 31.2474 139.203 31.9766H137.758C137.758 30.9297 138.094 30.0833 138.766 29.4375C139.443 28.7917 140.346 28.4688 141.477 28.4688C142.534 28.4688 143.37 28.7474 143.984 29.3047C144.599 29.8568 144.906 30.5938 144.906 31.5156C144.906 32.6354 144.193 33.9688 142.766 35.5156L139.719 38.8203H145.43V40ZM164.273 29.4375L159.562 40H158.047L162.742 29.8125H156.586V28.625H164.273V29.4375ZM169.578 34.2969L170.156 28.625H175.984V29.9609H171.383L171.039 33.0625C171.596 32.7344 172.229 32.5703 172.938 32.5703C173.974 32.5703 174.797 32.9141 175.406 33.6016C176.016 34.2839 176.32 35.2083 176.32 36.375C176.32 37.5469 176.003 38.4714 175.367 39.1484C174.737 39.8203 173.854 40.1562 172.719 40.1562C171.714 40.1562 170.893 39.8776 170.258 39.3203C169.622 38.763 169.26 37.9922 169.172 37.0078H170.539C170.628 37.6589 170.859 38.151 171.234 38.4844C171.609 38.8125 172.104 38.9766 172.719 38.9766C173.391 38.9766 173.917 38.7474 174.297 38.2891C174.682 37.8307 174.875 37.1979 174.875 36.3906C174.875 35.6302 174.667 35.0208 174.25 34.5625C173.839 34.099 173.289 33.8672 172.602 33.8672C171.971 33.8672 171.477 34.0052 171.117 34.2812L170.734 34.5938L169.578 34.2969ZM183 33.6094H184.086C184.768 33.599 185.305 33.4193 185.695 33.0703C186.086 32.7214 186.281 32.25 186.281 31.6562C186.281 30.3229 185.617 29.6562 184.289 29.6562C183.664 29.6562 183.164 29.8359 182.789 30.1953C182.419 30.5495 182.234 31.0208 182.234 31.6094H180.789C180.789 30.7083 181.117 29.9609 181.773 29.3672C182.435 28.7682 183.273 28.4688 184.289 28.4688C185.362 28.4688 186.203 28.7526 186.812 29.3203C187.422 29.888 187.727 30.6771 187.727 31.6875C187.727 32.1823 187.565 32.6615 187.242 33.125C186.924 33.5885 186.49 33.9349 185.938 34.1641C186.562 34.362 187.044 34.6901 187.383 35.1484C187.727 35.6068 187.898 36.1667 187.898 36.8281C187.898 37.849 187.565 38.6589 186.898 39.2578C186.232 39.8568 185.365 40.1562 184.297 40.1562C183.229 40.1562 182.359 39.8672 181.688 39.2891C181.021 38.7109 180.688 37.9479 180.688 37H182.141C182.141 37.599 182.336 38.0781 182.727 38.4375C183.117 38.7969 183.641 38.9766 184.297 38.9766C184.995 38.9766 185.529 38.7943 185.898 38.4297C186.268 38.0651 186.453 37.5417 186.453 36.8594C186.453 36.1979 186.25 35.6901 185.844 35.3359C185.438 34.9818 184.852 34.7995 184.086 34.7891H183V33.6094ZM200.336 40H192.883V38.9609L196.82 34.5859C197.404 33.9245 197.805 33.388 198.023 32.9766C198.247 32.5599 198.359 32.1302 198.359 31.6875C198.359 31.0938 198.18 30.6068 197.82 30.2266C197.461 29.8464 196.982 29.6562 196.383 29.6562C195.664 29.6562 195.104 29.862 194.703 30.2734C194.307 30.6797 194.109 31.2474 194.109 31.9766H192.664C192.664 30.9297 193 30.0833 193.672 29.4375C194.349 28.7917 195.253 28.4688 196.383 28.4688C197.44 28.4688 198.276 28.7474 198.891 29.3047C199.505 29.8568 199.812 30.5938 199.812 31.5156C199.812 32.6354 199.099 33.9688 197.672 35.5156L194.625 38.8203H200.336V40ZM213.938 33.6094H215.023C215.706 33.599 216.242 33.4193 216.633 33.0703C217.023 32.7214 217.219 32.25 217.219 31.6562C217.219 30.3229 216.555 29.6562 215.227 29.6562C214.602 29.6562 214.102 29.8359 213.727 30.1953C213.357 30.5495 213.172 31.0208 213.172 31.6094H211.727C211.727 30.7083 212.055 29.9609 212.711 29.3672C213.372 28.7682 214.211 28.4688 215.227 28.4688C216.299 28.4688 217.141 28.7526 217.75 29.3203C218.359 29.888 218.664 30.6771 218.664 31.6875C218.664 32.1823 218.503 32.6615 218.18 33.125C217.862 33.5885 217.427 33.9349 216.875 34.1641C217.5 34.362 217.982 34.6901 218.32 35.1484C218.664 35.6068 218.836 36.1667 218.836 36.8281C218.836 37.849 218.503 38.6589 217.836 39.2578C217.169 39.8568 216.302 40.1562 215.234 40.1562C214.167 40.1562 213.297 39.8672 212.625 39.2891C211.958 38.7109 211.625 37.9479 211.625 37H213.078C213.078 37.599 213.273 38.0781 213.664 38.4375C214.055 38.7969 214.578 38.9766 215.234 38.9766C215.932 38.9766 216.466 38.7943 216.836 38.4297C217.206 38.0651 217.391 37.5417 217.391 36.8594C217.391 36.1979 217.188 35.6901 216.781 35.3359C216.375 34.9818 215.789 34.7995 215.023 34.7891H213.938V33.6094ZM229.922 36.1797H231.5V37.3594H229.922V40H228.469V37.3594H223.289V36.5078L228.383 28.625H229.922V36.1797ZM224.93 36.1797H228.469V30.6016L228.297 30.9141L224.93 36.1797ZM243.148 29.4375L238.438 40H236.922L241.617 29.8125H235.461V28.625H243.148V29.4375ZM253.891 36.1797H255.469V37.3594H253.891V40H252.438V37.3594H247.258V36.5078L252.352 28.625H253.891V36.1797ZM248.898 36.1797H252.438V30.6016L252.266 30.9141L248.898 36.1797Z" fill="black"/>
<defs>
<filter id="filter0_dd" x="0" y="0" width="357" height="164" filterUnits="userSpaceOnUse" color-interpolation-filters="sRGB">
<feFlood flood-opacity="0" result="BackgroundImageFix"/>
<feColorMatrix in="SourceAlpha" type="matrix" values="0 0 0 0 0 0 0 0 0 0 0 0 0 0 0 0 0 0 127 0"/>
<feOffset dx="5" dy="-4"/>
<feGaussianBlur stdDeviation="5"/>
<feColorMatrix type="matrix" values="0 0 0 0 0 0 0 0 0 0 0 0 0 0 0 0 0 0 0.25 0"/>
<feBlend mode="normal" in2="BackgroundImageFix" result="effect1_dropShadow"/>
<feColorMatrix in="SourceAlpha" type="matrix" values="0 0 0 0 0 0 0 0 0 0 0 0 0 0 0 0 0 0 127 0"/>
<feOffset dy="4"/>
<feGaussianBlur stdDeviation="5"/>
<feColorMatrix type="matrix" values="0 0 0 0 0 0 0 0 0 0 0 0 0 0 0 0 0 0 0.25 0"/>
<feBlend mode="normal" in2="effect1_dropShadow" result="effect2_dropShadow"/>
<feBlend mode="normal" in="SourceGraphic" in2="effect2_dropShadow" result="shape"/>
</filter>
<clipPath id="clip0">
<rect width="116" height="75" fill="white" transform="translate(52 59)"/>
</clipPath>
</defs>
</svg>
