<svg width="365" height="238" viewBox="0 0 365 238" fill="none" xmlns="http://www.w3.org/2000/svg">
<g filter="url(#filter0_d)">
<rect x="15" y="11" width="335" height="208" rx="30" fill="url(#paint0_linear)"/>
</g>
<path d="M308.802 160.707H295.161V184.293H308.802V160.707Z" fill="#FF5F00"/>
<path d="M296.028 172.5C296.025 170.228 296.56 167.986 297.592 165.943C298.624 163.9 300.125 162.109 301.982 160.707C299.682 158.968 296.92 157.886 294.012 157.586C291.103 157.285 288.165 157.778 285.534 159.008C282.903 160.239 280.685 162.156 279.133 164.542C277.581 166.928 276.758 169.685 276.758 172.5C276.758 175.315 277.581 178.072 279.133 180.458C280.685 182.844 282.903 184.761 285.534 185.992C288.165 187.222 291.103 187.715 294.012 187.414C296.92 187.114 299.682 186.032 301.982 184.293C300.125 182.891 298.624 181.1 297.592 179.057C296.56 177.014 296.025 174.771 296.028 172.5Z" fill="#EB001B"/>
<path d="M327.205 172.5C327.205 175.314 326.382 178.072 324.83 180.458C323.279 182.844 321.06 184.761 318.429 185.991C315.798 187.222 312.861 187.715 309.952 187.414C307.044 187.114 304.282 186.032 301.982 184.293C303.837 182.889 305.337 181.098 306.369 179.055C307.4 177.013 307.936 174.771 307.936 172.5C307.936 170.229 307.4 167.987 306.369 165.945C305.337 163.902 303.837 162.111 301.982 160.707C304.282 158.968 307.044 157.886 309.952 157.586C312.861 157.285 315.798 157.778 318.429 159.008C321.06 160.239 323.279 162.156 324.83 164.542C326.382 166.928 327.205 169.685 327.205 172.5Z" fill="#F79E1B"/>
<path d="M325.718 181.795V181.312H325.92V181.214H325.405V181.312H325.607V181.795H325.718ZM326.718 181.795V181.213H326.56L326.379 181.613L326.197 181.213H326.039V181.795H326.15V181.356L326.321 181.734H326.436L326.607 181.355V181.795H326.718Z" fill="#F79E1B"/>
<path d="M36.7812 40.2969L37.3594 34.625H43.1875V35.9609H38.5859L38.2422 39.0625C38.7995 38.7344 39.4323 38.5703 40.1406 38.5703C41.1771 38.5703 42 38.9141 42.6094 39.6016C43.2188 40.2839 43.5234 41.2083 43.5234 42.375C43.5234 43.5469 43.2057 44.4714 42.5703 45.1484C41.9401 45.8203 41.0573 46.1562 39.9219 46.1562C38.9167 46.1562 38.0964 45.8776 37.4609 45.3203C36.8255 44.763 36.4635 43.9922 36.375 43.0078H37.7422C37.8307 43.6589 38.0625 44.151 38.4375 44.4844C38.8125 44.8125 39.3073 44.9766 39.9219 44.9766C40.5938 44.9766 41.1198 44.7474 41.5 44.2891C41.8854 43.8307 42.0781 43.1979 42.0781 42.3906C42.0781 41.6302 41.8698 41.0208 41.4531 40.5625C41.0417 40.099 40.4922 39.8672 39.8047 39.8672C39.1745 39.8672 38.6797 40.0052 38.3203 40.2812L37.9375 40.5938L36.7812 40.2969ZM54.2031 42.1797H55.7812V43.3594H54.2031V46H52.75V43.3594H47.5703V42.5078L52.6641 34.625H54.2031V42.1797ZM49.2109 42.1797H52.75V36.6016L52.5781 36.9141L49.2109 42.1797ZM67.5391 46H60.0859V44.9609L64.0234 40.5859C64.6068 39.9245 65.0078 39.388 65.2266 38.9766C65.4505 38.5599 65.5625 38.1302 65.5625 37.6875C65.5625 37.0938 65.3828 36.6068 65.0234 36.2266C64.6641 35.8464 64.1849 35.6562 63.5859 35.6562C62.8672 35.6562 62.3073 35.862 61.9062 36.2734C61.5104 36.6797 61.3125 37.2474 61.3125 37.9766H59.8672C59.8672 36.9297 60.2031 36.0833 60.875 35.4375C61.5521 34.7917 62.4557 34.4688 63.5859 34.4688C64.6432 34.4688 65.4792 34.7474 66.0938 35.3047C66.7083 35.8568 67.0156 36.5938 67.0156 37.5156C67.0156 38.6354 66.3021 39.9688 64.875 41.5156L61.8281 44.8203H67.5391V46ZM78.1719 42.1797H79.75V43.3594H78.1719V46H76.7188V43.3594H71.5391V42.5078L76.6328 34.625H78.1719V42.1797ZM73.1797 42.1797H76.7188V36.6016L76.5469 36.9141L73.1797 42.1797ZM95.7734 46H94.3203V36.3672L91.4062 37.4375V36.125L95.5469 34.5703H95.7734V46ZM109.906 37.5938C109.906 38.1615 109.755 38.6667 109.453 39.1094C109.156 39.5521 108.753 39.8984 108.242 40.1484C108.836 40.4036 109.305 40.776 109.648 41.2656C109.997 41.7552 110.172 42.3099 110.172 42.9297C110.172 43.9141 109.839 44.6979 109.172 45.2812C108.51 45.8646 107.638 46.1562 106.555 46.1562C105.461 46.1562 104.583 45.8646 103.922 45.2812C103.266 44.6927 102.938 43.9089 102.938 42.9297C102.938 42.3151 103.104 41.7604 103.438 41.2656C103.776 40.7708 104.242 40.3958 104.836 40.1406C104.331 39.8906 103.932 39.5443 103.641 39.1016C103.349 38.6589 103.203 38.1562 103.203 37.5938C103.203 36.6354 103.51 35.875 104.125 35.3125C104.74 34.75 105.549 34.4688 106.555 34.4688C107.555 34.4688 108.362 34.75 108.977 35.3125C109.596 35.875 109.906 36.6354 109.906 37.5938ZM108.727 42.8984C108.727 42.263 108.523 41.7448 108.117 41.3438C107.716 40.9427 107.19 40.7422 106.539 40.7422C105.888 40.7422 105.365 40.9401 104.969 41.3359C104.578 41.7318 104.383 42.2526 104.383 42.8984C104.383 43.5443 104.573 44.0521 104.953 44.4219C105.339 44.7917 105.872 44.9766 106.555 44.9766C107.232 44.9766 107.763 44.7917 108.148 44.4219C108.534 44.0469 108.727 43.5391 108.727 42.8984ZM106.555 35.6562C105.987 35.6562 105.526 35.8333 105.172 36.1875C104.823 36.5365 104.648 37.013 104.648 37.6172C104.648 38.1953 104.82 38.6641 105.164 39.0234C105.513 39.3776 105.977 39.5547 106.555 39.5547C107.133 39.5547 107.594 39.3776 107.938 39.0234C108.286 38.6641 108.461 38.1953 108.461 37.6172C108.461 37.0391 108.281 36.5677 107.922 36.2031C107.562 35.8385 107.107 35.6562 106.555 35.6562ZM121.094 42.1797H122.672V43.3594H121.094V46H119.641V43.3594H114.461V42.5078L119.555 34.625H121.094V42.1797ZM116.102 42.1797H119.641V36.6016L119.469 36.9141L116.102 42.1797ZM127.641 40.2969L128.219 34.625H134.047V35.9609H129.445L129.102 39.0625C129.659 38.7344 130.292 38.5703 131 38.5703C132.036 38.5703 132.859 38.9141 133.469 39.6016C134.078 40.2839 134.383 41.2083 134.383 42.375C134.383 43.5469 134.065 44.4714 133.43 45.1484C132.799 45.8203 131.917 46.1562 130.781 46.1562C129.776 46.1562 128.956 45.8776 128.32 45.3203C127.685 44.763 127.323 43.9922 127.234 43.0078H128.602C128.69 43.6589 128.922 44.151 129.297 44.4844C129.672 44.8125 130.167 44.9766 130.781 44.9766C131.453 44.9766 131.979 44.7474 132.359 44.2891C132.745 43.8307 132.938 43.1979 132.938 42.3906C132.938 41.6302 132.729 41.0208 132.312 40.5625C131.901 40.099 131.352 39.8672 130.664 39.8672C130.034 39.8672 129.539 40.0052 129.18 40.2812L128.797 40.5938L127.641 40.2969ZM150.68 46H149.227V36.3672L146.312 37.4375V36.125L150.453 34.5703H150.68V46ZM158.578 40.2969L159.156 34.625H164.984V35.9609H160.383L160.039 39.0625C160.596 38.7344 161.229 38.5703 161.938 38.5703C162.974 38.5703 163.797 38.9141 164.406 39.6016C165.016 40.2839 165.32 41.2083 165.32 42.375C165.32 43.5469 165.003 44.4714 164.367 45.1484C163.737 45.8203 162.854 46.1562 161.719 46.1562C160.714 46.1562 159.893 45.8776 159.258 45.3203C158.622 44.763 158.26 43.9922 158.172 43.0078H159.539C159.628 43.6589 159.859 44.151 160.234 44.4844C160.609 44.8125 161.104 44.9766 161.719 44.9766C162.391 44.9766 162.917 44.7474 163.297 44.2891C163.682 43.8307 163.875 43.1979 163.875 42.3906C163.875 41.6302 163.667 41.0208 163.25 40.5625C162.839 40.099 162.289 39.8672 161.602 39.8672C160.971 39.8672 160.477 40.0052 160.117 40.2812L159.734 40.5938L158.578 40.2969ZM175.57 34.6172V35.8438H175.305C174.18 35.8646 173.284 36.1979 172.617 36.8438C171.951 37.4896 171.565 38.3984 171.461 39.5703C172.06 38.8828 172.878 38.5391 173.914 38.5391C174.904 38.5391 175.693 38.888 176.281 39.5859C176.875 40.2839 177.172 41.1849 177.172 42.2891C177.172 43.4609 176.852 44.3984 176.211 45.1016C175.576 45.8047 174.721 46.1562 173.648 46.1562C172.56 46.1562 171.677 45.7396 171 44.9062C170.323 44.0677 169.984 42.9896 169.984 41.6719V41.1172C169.984 39.0234 170.43 37.4245 171.32 36.3203C172.216 35.2109 173.547 34.6432 175.312 34.6172H175.57ZM173.672 39.7422C173.177 39.7422 172.721 39.8906 172.305 40.1875C171.888 40.4844 171.599 40.8568 171.438 41.3047V41.8359C171.438 42.7734 171.648 43.5286 172.07 44.1016C172.492 44.6745 173.018 44.9609 173.648 44.9609C174.299 44.9609 174.81 44.7214 175.18 44.2422C175.555 43.763 175.742 43.1354 175.742 42.3594C175.742 41.5781 175.552 40.9479 175.172 40.4688C174.797 39.9844 174.297 39.7422 173.672 39.7422ZM187.984 42.1797H189.562V43.3594H187.984V46H186.531V43.3594H181.352V42.5078L186.445 34.625H187.984V42.1797ZM182.992 42.1797H186.531V36.6016L186.359 36.9141L182.992 42.1797ZM205.586 46H204.133V36.3672L201.219 37.4375V36.125L205.359 34.5703H205.586V46ZM218.359 41C218.057 41.3594 217.695 41.6484 217.273 41.8672C216.857 42.0859 216.398 42.1953 215.898 42.1953C215.242 42.1953 214.669 42.0339 214.18 41.7109C213.695 41.388 213.32 40.9349 213.055 40.3516C212.789 39.763 212.656 39.1146 212.656 38.4062C212.656 37.6458 212.799 36.9609 213.086 36.3516C213.378 35.7422 213.789 35.276 214.32 34.9531C214.852 34.6302 215.471 34.4688 216.18 34.4688C217.305 34.4688 218.19 34.8906 218.836 35.7344C219.487 36.5729 219.812 37.7188 219.812 39.1719V39.5938C219.812 41.8073 219.375 43.4245 218.5 44.4453C217.625 45.4609 216.305 45.9818 214.539 46.0078H214.258V44.7891H214.562C215.755 44.7682 216.672 44.4583 217.312 43.8594C217.953 43.2552 218.302 42.3021 218.359 41ZM216.133 41C216.617 41 217.062 40.8516 217.469 40.5547C217.88 40.2578 218.18 39.8906 218.367 39.4531V38.875C218.367 37.9271 218.161 37.1562 217.75 36.5625C217.339 35.9688 216.818 35.6719 216.188 35.6719C215.552 35.6719 215.042 35.9167 214.656 36.4062C214.271 36.8906 214.078 37.5312 214.078 38.3281C214.078 39.1042 214.263 39.7448 214.633 40.25C215.008 40.75 215.508 41 216.133 41ZM225.469 40.2969L226.047 34.625H231.875V35.9609H227.273L226.93 39.0625C227.487 38.7344 228.12 38.5703 228.828 38.5703C229.865 38.5703 230.688 38.9141 231.297 39.6016C231.906 40.2839 232.211 41.2083 232.211 42.375C232.211 43.5469 231.893 44.4714 231.258 45.1484C230.628 45.8203 229.745 46.1562 228.609 46.1562C227.604 46.1562 226.784 45.8776 226.148 45.3203C225.513 44.763 225.151 43.9922 225.062 43.0078H226.43C226.518 43.6589 226.75 44.151 227.125 44.4844C227.5 44.8125 227.995 44.9766 228.609 44.9766C229.281 44.9766 229.807 44.7474 230.188 44.2891C230.573 43.8307 230.766 43.1979 230.766 42.3906C230.766 41.6302 230.557 41.0208 230.141 40.5625C229.729 40.099 229.18 39.8672 228.492 39.8672C227.862 39.8672 227.367 40.0052 227.008 40.2812L226.625 40.5938L225.469 40.2969ZM242.461 34.6172V35.8438H242.195C241.07 35.8646 240.174 36.1979 239.508 36.8438C238.841 37.4896 238.456 38.3984 238.352 39.5703C238.951 38.8828 239.768 38.5391 240.805 38.5391C241.794 38.5391 242.583 38.888 243.172 39.5859C243.766 40.2839 244.062 41.1849 244.062 42.2891C244.062 43.4609 243.742 44.3984 243.102 45.1016C242.466 45.8047 241.612 46.1562 240.539 46.1562C239.451 46.1562 238.568 45.7396 237.891 44.9062C237.214 44.0677 236.875 42.9896 236.875 41.6719V41.1172C236.875 39.0234 237.32 37.4245 238.211 36.3203C239.107 35.2109 240.438 34.6432 242.203 34.6172H242.461ZM240.562 39.7422C240.068 39.7422 239.612 39.8906 239.195 40.1875C238.779 40.4844 238.49 40.8568 238.328 41.3047V41.8359C238.328 42.7734 238.539 43.5286 238.961 44.1016C239.383 44.6745 239.909 44.9609 240.539 44.9609C241.19 44.9609 241.701 44.7214 242.07 44.2422C242.445 43.763 242.633 43.1354 242.633 42.3594C242.633 41.5781 242.443 40.9479 242.062 40.4688C241.688 39.9844 241.188 39.7422 240.562 39.7422Z" fill="white"/>
<path d="M322.836 49.8438H305.164C303.611 49.8438 302.352 48.5845 302.352 47.0312V32.9688C302.352 31.4155 303.611 30.1562 305.164 30.1562H322.836C324.389 30.1562 325.648 31.4155 325.648 32.9688V47.0312C325.648 48.5845 324.389 49.8438 322.836 49.8438Z" fill="#FFEEBC"/>
<path d="M324.242 40V43.5156L321.43 45.625V37.8906L324.242 40Z" fill="#FF6737"/>
<path d="M314 47.0312V38.5938H322.836V43.5156L314 47.0312Z" fill="#FF8937"/>
<path d="M324.242 36.4844V40H322.836L320.727 34.375L324.242 36.4844Z" fill="#FF8937"/>
<path d="M322.836 36.4844V40H314V32.9688L322.836 36.4844Z" fill="#FFAB37"/>
<path d="M314 47.0317C313.992 47.0312 303.758 43.5156 303.758 43.5156V40L314 37.1875V47.0317Z" fill="#FFAB37"/>
<path d="M314 32.9688V40H303.758V36.4844L314 32.9688Z" fill="#FF8937"/>
<path d="M322.836 43.5156L321.43 48.4375H322.836C323.611 48.4375 324.242 47.8066 324.242 47.0312V43.5156H322.836Z" fill="#FFAB37"/>
<path d="M322.836 31.5625H321.43L322.836 36.4844H324.242V32.9688C324.242 32.1934 323.611 31.5625 322.836 31.5625Z" fill="#FFAB37"/>
<path d="M303.758 43.5156V47.0312C303.758 47.8066 304.389 48.4375 305.164 48.4375H310.836L314 46.8977L317.164 48.4375H321.43C322.205 48.4375 322.836 47.8066 322.836 47.0312V43.5156H303.758Z" fill="#FFCD37"/>
<path d="M321.43 31.5625H305.164C304.389 31.5625 303.758 32.1934 303.758 32.9688V36.4844H322.836V32.9688C322.836 32.1934 322.205 31.5625 321.43 31.5625Z" fill="#FFCD37"/>
<path d="M316.551 34.5709C316.929 34.3009 317.164 33.8748 317.164 33.4103V31.5625H310.836V33.4103C310.836 33.8748 311.071 34.3009 311.449 34.5709C311.726 34.7692 311.903 35.0983 311.89 35.4681C311.87 36.0311 311.397 36.4713 310.836 36.4839V43.5161C311.397 43.5288 311.87 43.9689 311.89 44.5319C311.903 44.9017 311.726 45.2308 311.449 45.4291C311.071 45.6991 310.836 46.1252 310.836 46.5897V48.4375H317.164V46.5897C317.164 46.1252 316.929 45.6991 316.551 45.4291C316.274 45.2308 316.097 44.9017 316.11 44.5319C316.13 43.9689 316.603 43.5288 317.164 43.5161V36.4839C316.603 36.4713 316.13 36.0311 316.11 35.4681C316.097 35.0983 316.274 34.7692 316.551 34.5709Z" fill="#FFDF7D"/>
<path d="M322.836 29.8047H305.164C303.419 29.8047 302 31.2241 302 32.9688V47.0312C302 48.7759 303.419 50.1953 305.164 50.1953H322.836C324.581 50.1953 326 48.7759 326 47.0312V32.9688C326 31.2241 324.581 29.8047 322.836 29.8047ZM325.297 47.0312C325.297 48.3882 324.193 49.4922 322.836 49.4922H305.164C303.807 49.4922 302.703 48.3882 302.703 47.0312V32.9688C302.703 31.6118 303.807 30.5078 305.164 30.5078H322.836C324.193 30.5078 325.297 31.6118 325.297 32.9688V47.0312Z" fill="black"/>
<path d="M322.836 31.2109H305.164C304.195 31.2109 303.406 31.9995 303.406 32.9688V35.0781C303.406 35.2723 303.564 35.4297 303.758 35.4297C303.952 35.4297 304.109 35.2723 304.109 35.0781V32.9688C304.109 32.3872 304.582 31.9141 305.164 31.9141H310.484V33.4103C310.484 33.9761 310.768 34.517 311.244 34.8571C311.437 34.9949 311.547 35.2186 311.539 35.4556C311.525 35.829 311.199 36.1328 310.811 36.1328H303.758C303.564 36.1328 303.406 36.2902 303.406 36.4843V47.0312C303.406 48.0005 304.195 48.789 305.164 48.789H322.836C323.805 48.789 324.594 48.0005 324.594 47.0312V32.9688C324.594 31.9995 323.805 31.2109 322.836 31.2109ZM323.891 32.9688V36.1328H317.189C316.801 36.1328 316.475 35.8291 316.461 35.4557C316.453 35.2187 316.563 34.9949 316.756 34.8571C317.232 34.517 317.516 33.9761 317.516 33.4103V31.9141H322.836C323.418 31.9141 323.891 32.3872 323.891 32.9688ZM317.541 40.3516H323.891V43.1641H317.541V40.3516ZM317.541 39.6484V36.8359H323.891V39.6484H317.541ZM312.241 35.4806C312.258 35.0073 312.038 34.5604 311.653 34.285C311.361 34.0767 311.188 33.7497 311.188 33.4103V31.9141H316.812V33.4103C316.812 33.7497 316.639 34.0767 316.347 34.285C315.962 34.5604 315.742 35.0073 315.759 35.4806C315.781 36.1094 316.239 36.6394 316.838 36.7918V43.2081C316.239 43.3605 315.781 43.8905 315.759 44.5194C315.742 44.9927 315.962 45.4396 316.347 45.7149C316.639 45.9233 316.812 46.2503 316.812 46.5897V48.0859H311.188V46.5897C311.188 46.2503 311.361 45.9233 311.653 45.715C312.038 45.4396 312.258 44.9927 312.241 44.5194C312.219 43.8906 311.761 43.3606 311.162 43.2082V36.7918C311.761 36.6395 312.219 36.1094 312.241 35.4806ZM310.459 43.1641H304.109V40.3516H310.459V43.1641ZM310.459 36.8359V39.6484H304.109V36.8359H310.459ZM304.109 47.0312V43.8672H310.811C311.199 43.8672 311.525 44.1709 311.539 44.5443C311.547 44.7813 311.437 45.0051 311.244 45.1429C310.768 45.483 310.484 46.0239 310.484 46.5897V48.0859H305.164C304.582 48.0859 304.109 47.6128 304.109 47.0312ZM322.836 48.0859H317.516V46.5897C317.516 46.0239 317.232 45.483 316.756 45.1429C316.563 45.0051 316.453 44.7814 316.461 44.5444C316.475 44.171 316.801 43.8672 317.189 43.8672H323.891V47.0312C323.891 47.6128 323.418 48.0859 322.836 48.0859Z" fill="black"/>
<defs>
<filter id="filter0_d" x="0" y="0" width="365" height="238" filterUnits="userSpaceOnUse" color-interpolation-filters="sRGB">
<feFlood flood-opacity="0" result="BackgroundImageFix"/>
<feColorMatrix in="SourceAlpha" type="matrix" values="0 0 0 0 0 0 0 0 0 0 0 0 0 0 0 0 0 0 127 0"/>
<feOffset dy="4"/>
<feGaussianBlur stdDeviation="7.5"/>
<feColorMatrix type="matrix" values="0 0 0 0 0 0 0 0 0 0 0 0 0 0 0 0 0 0 0.25 0"/>
<feBlend mode="normal" in2="BackgroundImageFix" result="effect1_dropShadow"/>
<feBlend mode="normal" in="SourceGraphic" in2="effect1_dropShadow" result="shape"/>
</filter>
<linearGradient id="paint0_linear" x1="182.5" y1="11" x2="182.5" y2="219" gradientUnits="userSpaceOnUse">
<stop stop-color="#1C68CC"/>
<stop offset="1" stop-color="#144B94"/>
</linearGradient>
</defs>
</svg>
