<svg width="212" height="57" viewBox="0 0 212 57" fill="none" xmlns="http://www.w3.org/2000/svg">
<path d="M58.5809 6.09329H33.6434V50.9067H58.5809V6.09329Z" fill="#5A626D"/>
<path d="M35.2269 28.5C35.2229 24.1842 36.2009 19.924 38.0868 16.042C39.9727 12.16 42.7171 8.7579 46.1122 6.09331C41.9079 2.78861 36.8586 0.733462 31.5415 0.162771C26.2243 -0.40792 20.8539 0.528851 16.044 2.86605C11.2342 5.20326 7.17888 8.84659 4.34172 13.3796C1.50457 17.9126 0 23.1523 0 28.5C0 33.8477 1.50457 39.0874 4.34172 43.6204C7.17888 48.1534 11.2342 51.7967 16.044 54.1339C20.8539 56.4711 26.2243 57.4079 31.5415 56.8372C36.8586 56.2665 41.9079 54.2114 46.1122 50.9067C42.7171 48.2421 39.9728 44.84 38.0869 40.958C36.201 37.076 35.2229 32.8158 35.2269 28.5Z" fill="#7F7F7F"/>
<path d="M89.504 46.1604V45.2429H89.8739V45.056H88.9318V45.2429H89.3018V46.1604H89.504ZM91.3331 46.1604V45.0542H91.0443L90.7121 45.8151L90.3799 45.0542H90.0909V46.1604H90.2948V45.326L90.6063 46.0453H90.8178L91.1293 45.3241V46.1604H91.3331Z" fill="#00A2E5"/>
<path d="M92.223 28.5C92.2232 33.8476 90.7188 39.0873 87.8818 43.6203C85.0448 48.1533 80.9896 51.7966 76.1798 54.1339C71.37 56.4711 65.9997 57.4079 60.6827 56.8372C55.3656 56.2665 50.3164 54.2114 46.1122 50.9067C49.5043 48.2394 52.2465 44.8368 54.1321 40.9554C56.0177 37.074 56.9975 32.8152 56.9975 28.5C56.9975 24.1848 56.0177 19.926 54.1321 16.0446C52.2465 12.1632 49.5043 8.76058 46.1122 6.0933C50.3164 2.78859 55.3656 0.733448 60.6827 0.162764C65.9997 -0.40792 71.37 0.528892 76.1798 2.86612C80.9896 5.20334 85.0448 8.84667 87.8818 13.3797C90.7188 17.9127 92.2232 23.1524 92.223 28.5Z" fill="#1E4786"/>
<path d="M113.47 27.2917C114.922 28.3209 115.648 29.7855 115.648 31.6855C115.648 32.5563 115.436 33.3743 115.014 34.1396C114.618 34.9049 114.064 35.5778 113.352 36.1584C112.639 36.7389 111.808 37.2007 110.858 37.5438C109.908 37.8605 108.892 38.0188 107.81 38.0188C106.992 38.0188 106.187 37.9132 105.395 37.7021C104.63 37.491 103.918 37.2007 103.258 36.8313C102.598 36.4618 102.018 36.0264 101.516 35.525C101.041 34.9973 100.685 34.4167 100.448 33.7834C101.054 33.4931 101.727 33.1764 102.466 32.8334C103.205 32.4639 103.852 32.1341 104.406 31.8438C104.643 32.2396 105.013 32.6091 105.514 32.9521C106.016 33.2688 106.702 33.4271 107.573 33.4271C108.47 33.4271 109.129 33.216 109.552 32.7938C109.974 32.3716 110.185 31.9757 110.185 31.6063C110.185 31.3424 110.04 31.1049 109.75 30.8938C109.459 30.6563 109.129 30.4716 108.76 30.3396C108.232 30.1285 107.797 30.023 107.454 30.023C107.111 29.9966 106.715 29.9174 106.266 29.7855C104.841 29.4424 103.746 28.9938 102.981 28.4396C102.242 27.8591 101.701 27.2785 101.358 26.698C101.015 26.1174 100.817 25.5632 100.764 25.0355C100.738 24.5077 100.725 24.0855 100.725 23.7688C100.725 22.9244 100.909 22.1195 101.279 21.3542C101.648 20.5889 102.15 19.9292 102.783 19.375C103.443 18.7945 104.195 18.3327 105.039 17.9896C105.91 17.6466 106.834 17.475 107.81 17.475C108.628 17.475 109.407 17.5938 110.145 17.8313C110.884 18.0688 111.557 18.3987 112.164 18.8209C112.771 19.2431 113.286 19.7445 113.708 20.325C114.157 20.9056 114.486 21.5521 114.698 22.2646L110.462 23.6896C110.304 23.2146 109.974 22.832 109.473 22.5417C108.998 22.2514 108.483 22.1063 107.929 22.1063C107.375 22.1063 106.926 22.291 106.583 22.6605C106.24 23.0299 106.068 23.3994 106.068 23.7688C106.068 24.2174 106.227 24.5737 106.543 24.8375C106.886 25.075 107.256 25.2466 107.652 25.3521C107.942 25.4049 108.219 25.4577 108.483 25.5105C108.773 25.5368 109.05 25.5764 109.314 25.6292C110.238 25.8403 111.029 26.0778 111.689 26.3417C112.375 26.6056 112.969 26.9223 113.47 27.2917ZM130.664 17.3959C131.957 17.3959 133.158 17.673 134.266 18.2271C135.401 18.7549 136.377 19.4938 137.195 20.4438C138.013 21.3674 138.646 22.4625 139.095 23.7292C139.57 24.9695 139.808 26.3021 139.808 27.7271V37.5834H134.464V33.9813C134.464 32.9785 134.464 31.9493 134.464 30.8938C134.49 29.8118 134.503 28.8882 134.503 28.123C134.503 27.3841 134.385 26.6584 134.147 25.9459C133.91 25.2334 133.58 24.6132 133.158 24.0855C132.735 23.5313 132.234 23.0959 131.653 22.7792C131.099 22.4362 130.506 22.2646 129.872 22.2646C129.265 22.2646 128.685 22.3834 128.131 22.6209C127.576 22.832 127.088 23.1619 126.666 23.6105C126.244 24.0327 125.901 24.5737 125.637 25.2334C125.399 25.8931 125.281 26.6716 125.281 27.5688V37.5834H119.778V8.68755H125.281V19.4542C125.967 18.7945 126.745 18.2931 127.616 17.95C128.513 17.5806 129.529 17.3959 130.664 17.3959ZM149.4 37.5834H143.938V17.95H149.4V37.5834ZM146.669 15.2584C145.824 15.2584 145.112 14.9681 144.531 14.3875C143.951 13.807 143.66 13.0945 143.66 12.25C143.66 11.4056 143.951 10.6931 144.531 10.1125C145.112 9.5056 145.824 9.20213 146.669 9.20213C147.513 9.20213 148.226 9.5056 148.806 10.1125C149.387 10.6931 149.677 11.4056 149.677 12.25C149.677 13.0945 149.387 13.807 148.806 14.3875C148.226 14.9681 147.513 15.2584 146.669 15.2584ZM164.36 17.3959C165.838 17.3959 167.183 17.6994 168.397 18.3063C169.611 18.8869 170.654 19.6653 171.524 20.6417C172.395 21.5917 173.068 22.7 173.543 23.9667C174.018 25.207 174.256 26.4868 174.256 27.8063C174.256 28.598 174.15 29.4424 173.939 30.3396H159.926C160.454 31.2368 161.206 32.0021 162.183 32.6355C163.159 33.2424 164.215 33.5459 165.349 33.5459C166.484 33.5459 167.474 33.4535 168.318 33.2688C169.189 33.0841 170.007 32.8466 170.772 32.5563L172.593 35.9209C171.617 36.607 170.495 37.1348 169.229 37.5042C167.988 37.8737 166.656 38.0584 165.231 38.0584C163.674 38.0584 162.222 37.7945 160.876 37.2667C159.531 36.7125 158.356 35.9737 157.354 35.05C156.351 34.1264 155.559 33.0313 154.979 31.7646C154.398 30.498 154.108 29.1521 154.108 27.7271C154.108 26.3285 154.372 25.0091 154.899 23.7688C155.427 22.5021 156.153 21.407 157.076 20.4834C158.026 19.5334 159.122 18.7813 160.362 18.2271C161.602 17.673 162.935 17.3959 164.36 17.3959ZM168.833 26.1042C168.516 24.9695 167.949 24.0459 167.131 23.3334C166.313 22.6209 165.389 22.2646 164.36 22.2646C163.304 22.2646 162.341 22.6209 161.47 23.3334C160.626 24.0459 160.045 24.9695 159.729 26.1042H168.833ZM179.549 8.64797H185.011V37.5834H179.549V8.64797ZM209.338 8.68755V37.5834H204.667L203.875 35.8813C203.268 36.5146 202.424 37.0424 201.342 37.4646C200.286 37.8605 199.178 38.0584 198.017 38.0584C196.618 38.0584 195.325 37.7945 194.138 37.2667C192.95 36.7125 191.921 35.9737 191.05 35.05C190.206 34.1 189.533 33.0049 189.032 31.7646C188.557 30.498 188.319 29.1521 188.319 27.7271C188.319 26.3021 188.557 24.9695 189.032 23.7292C189.533 22.4625 190.206 21.3674 191.05 20.4438C191.921 19.4938 192.95 18.7549 194.138 18.2271C195.325 17.673 196.618 17.3959 198.017 17.3959C199.257 17.3959 200.352 17.541 201.302 17.8313C202.279 18.1216 203.136 18.6098 203.875 19.2959V8.68755H209.338ZM203.875 27.8063C203.875 26.7771 203.743 25.9195 203.48 25.2334C203.216 24.5209 202.846 23.9535 202.371 23.5313C201.896 23.0827 201.342 22.766 200.709 22.5813C200.102 22.3702 199.442 22.2646 198.73 22.2646C198.017 22.2646 197.344 22.4098 196.711 22.7C196.104 22.9903 195.563 23.3862 195.088 23.8875C194.639 24.3625 194.283 24.9431 194.019 25.6292C193.755 26.2889 193.623 26.9882 193.623 27.7271C193.623 28.4924 193.755 29.2049 194.019 29.8646C194.283 30.5243 194.639 31.1049 195.088 31.6063C195.563 32.0813 196.104 32.4639 196.711 32.7542C197.344 33.0445 198.017 33.1896 198.73 33.1896C200.155 33.1896 201.355 32.7542 202.332 31.8834C203.334 30.9862 203.849 29.6271 203.875 27.8063Z" fill="black"/>
</svg>
