<svg width="24" height="24" viewBox="0 0 24 24" fill="none" xmlns="http://www.w3.org/2000/svg">
<g clip-path="url(#clip0)">
<path d="M18.3975 24H5.60251C4.966 24 4.35555 23.7471 3.90546 23.2971C3.45537 22.847 3.20251 22.2365 3.20251 21.6V13.5975C3.20251 12.961 3.45537 12.3505 3.90546 11.9004C4.35555 11.4504 4.966 11.1975 5.60251 11.1975H18.3975C19.034 11.1975 19.6445 11.4504 20.0946 11.9004C20.5447 12.3505 20.7975 12.961 20.7975 13.5975V21.6C20.7975 22.2365 20.5447 22.847 20.0946 23.2971C19.6445 23.7471 19.034 24 18.3975 24V24ZM5.60251 12.8025C5.39097 12.8025 5.18798 12.886 5.0377 13.0349C4.88741 13.1838 4.80199 13.386 4.80001 13.5975V21.6C4.80001 21.8128 4.88456 22.017 5.03506 22.1675C5.18556 22.318 5.38968 22.4025 5.60251 22.4025H18.3975C18.6104 22.4025 18.8145 22.318 18.965 22.1675C19.1155 22.017 19.2 21.8128 19.2 21.6V13.5975C19.2 13.3847 19.1155 13.1805 18.965 13.03C18.8145 12.8796 18.6104 12.795 18.3975 12.795L5.60251 12.8025Z" fill="black"/>
<path d="M12 19.215C11.7872 19.215 11.5831 19.1305 11.4326 18.98C11.2821 18.8295 11.1975 18.6253 11.1975 18.4125V16.785C11.2168 16.5865 11.3092 16.4023 11.4569 16.2683C11.6046 16.1342 11.7968 16.06 11.9963 16.06C12.1957 16.06 12.388 16.1342 12.5356 16.2683C12.6833 16.4023 12.7758 16.5865 12.795 16.785V18.4125C12.795 18.624 12.7115 18.827 12.5626 18.9773C12.4137 19.1276 12.2115 19.213 12 19.215V19.215Z" fill="black"/>
<path d="M16.8 9.6C16.6946 9.6 16.5903 9.57925 16.4929 9.53892C16.3955 9.49859 16.3071 9.43948 16.2325 9.36496C16.158 9.29044 16.0989 9.20197 16.0586 9.10461C16.0183 9.00724 15.9975 8.90289 15.9975 8.7975V5.595C15.9975 4.5348 15.5763 3.51802 14.8267 2.76834C14.077 2.01867 13.0602 1.5975 12 1.5975C10.9398 1.5975 9.92301 2.01867 9.17334 2.76834C8.42366 3.51802 8.0025 4.5348 8.0025 5.595V8.7975C8.0133 8.9089 8.00069 9.02133 7.96547 9.12756C7.93024 9.23379 7.87319 9.33148 7.79796 9.41436C7.72274 9.49723 7.63102 9.56345 7.52868 9.60877C7.42635 9.65408 7.31567 9.6775 7.20375 9.6775C7.09182 9.6775 6.98114 9.65408 6.87881 9.60877C6.77647 9.56345 6.68475 9.49723 6.60953 9.41436C6.5343 9.33148 6.47725 9.23379 6.44203 9.12756C6.4068 9.02133 6.39419 8.9089 6.405 8.7975V5.595C6.405 4.11012 6.99486 2.68606 8.04483 1.63609C9.0948 0.586121 10.5189 -0.00374603 12.0037 -0.00374603C13.4886 -0.00374603 14.9127 0.586121 15.9627 1.63609C17.0126 2.68606 17.6025 4.11012 17.6025 5.595V8.7975C17.6025 8.90289 17.5817 9.00724 17.5414 9.10461C17.5011 9.20197 17.442 9.29044 17.3675 9.36496C17.2929 9.43948 17.2045 9.49859 17.1071 9.53892C17.0097 9.57925 16.9054 9.6 16.8 9.6V9.6Z" fill="black"/>
</g>
<defs>
<clipPath id="clip0">
<rect width="24" height="24" fill="white"/>
</clipPath>
</defs>
</svg>
