<svg width="7" height="11" viewBox="0 0 7 11" fill="none" xmlns="http://www.w3.org/2000/svg">
<path d="M0.823329 0.000189413C0.662835 -0.00338637 0.505228 0.0437426 0.372421 0.135097C0.239613 0.226451 0.138204 0.357515 0.0822921 0.509949C0.0263804 0.662384 0.0187443 0.828655 0.0604452 0.985689C0.102146 1.14272 0.191112 1.28263 0.314974 1.38608L5.04101 5.48735L0.314974 9.58718C0.229292 9.65097 0.157536 9.73195 0.104199 9.82514C0.0508615 9.91832 0.0170925 10.0217 0.005006 10.1287C-0.00708052 10.2357 0.00277616 10.3441 0.0339586 10.4471C0.0651411 10.55 0.116977 10.6454 0.186222 10.7272C0.255466 10.8089 0.340627 10.8752 0.436371 10.9221C0.532115 10.9689 0.636379 10.9953 0.742635 10.9994C0.84889 11.0036 0.954847 10.9855 1.05387 10.9463C1.15289 10.907 1.24285 10.8475 1.31811 10.7714L6.72899 6.08175C6.81396 6.0083 6.8822 5.91713 6.92898 5.81438C6.97577 5.71162 7 5.59978 7 5.48663C7 5.37347 6.97577 5.26163 6.92898 5.15888C6.8822 5.05613 6.81396 4.96487 6.72899 4.89141L1.31811 0.197271C1.18142 0.0742862 1.0061 0.00436612 0.823329 8.93477e-06V0.000189413Z" fill="black"/>
</svg>
