<svg width="21" height="24" viewBox="0 0 21 24" fill="none" xmlns="http://www.w3.org/2000/svg">
<path d="M14.5072 11.5672C15.1883 10.9878 15.7355 10.2674 16.1109 9.45586C16.4864 8.64431 16.6812 7.76091 16.6819 6.86671V6.02783C16.6381 4.41427 15.9664 2.8815 14.8097 1.75571C13.6529 0.629923 12.1025 0 10.4883 0C8.87418 0 7.32375 0.629923 6.167 1.75571C5.01025 2.8815 4.3385 4.41427 4.29472 6.02783V6.86215C4.29542 7.75636 4.49023 8.63975 4.8657 9.4513C5.24117 10.2629 5.78835 10.9832 6.46943 11.5626C4.61032 12.0802 2.97162 13.1918 1.80349 14.7279C0.635355 16.2641 0.00196336 18.1402 0 20.07V23.0882C0 23.33 0.0960677 23.5619 0.267069 23.7329C0.43807 23.9039 0.669998 24 0.91183 24H20.0603C20.3021 24 20.534 23.9039 20.705 23.7329C20.876 23.5619 20.9721 23.33 20.9721 23.0882V20.07C20.9694 18.1416 20.3362 16.2669 19.169 14.7318C18.0019 13.1967 16.3647 12.0854 14.5072 11.5672V11.5672ZM6.11382 6.02783C6.15047 4.89328 6.62693 3.81746 7.44246 3.02785C8.25798 2.23825 9.34862 1.79677 10.4838 1.79677C11.6189 1.79677 12.7096 2.23825 13.5251 3.02785C14.3406 3.81746 14.8171 4.89328 14.8537 6.02783V6.86215C14.8171 7.9967 14.3406 9.07253 13.5251 9.86213C12.7096 10.6517 11.6189 11.0932 10.4838 11.0932C9.34862 11.0932 8.25798 10.6517 7.44246 9.86213C6.62693 9.07253 6.15047 7.9967 6.11382 6.86215V6.02783ZM19.1484 22.1763H1.82366V20.07C1.82487 18.2107 2.56402 16.4279 3.87875 15.1131C5.19349 13.7984 6.97631 13.0592 8.83563 13.058H12.141C13.9995 13.0605 15.7812 13.8001 17.095 15.1147C18.4087 16.4294 19.1472 18.2115 19.1484 20.07V22.1763Z" fill="black"/>
</svg>
