<svg width="267" height="72" viewBox="0 0 267 72" fill="none" xmlns="http://www.w3.org/2000/svg">
<path d="M73.9969 7.69678H42.4969V64.3032H73.9969V7.69678Z" fill="#5A626D"/>
<path d="M44.4971 36C44.4922 30.5484 45.7275 25.1671 48.1097 20.2635C50.4919 15.3599 53.9585 11.0626 58.247 7.69682C52.9363 3.52245 46.5582 0.926479 39.8418 0.205606C33.1255 -0.515267 26.3418 0.668022 20.2662 3.62028C14.1905 6.57254 9.06806 11.1746 5.48428 16.9005C1.90051 22.6264 0 29.2451 0 36C0 42.7549 1.90051 49.3736 5.48428 55.0995C9.06806 60.8254 14.1905 65.4275 20.2662 68.3797C26.3418 71.332 33.1255 72.5153 39.8418 71.7944C46.5582 71.0735 52.9363 68.4776 58.247 64.3032C53.9585 60.9374 50.4919 56.64 48.1097 51.7365C45.7275 46.8329 44.4922 41.4516 44.4971 36Z" fill="#7F7F7F"/>
<path d="M113.058 58.3078V57.1489H113.525V56.9128H112.335V57.1489H112.802V58.3078H113.058ZM115.368 58.3078V56.9105H115.003L114.584 57.8716L114.164 56.9105H113.799V58.3078H114.057V57.2538L114.45 58.1625H114.717L115.111 57.2515V58.3078H115.368Z" fill="#00A2E5"/>
<path d="M116.492 36C116.492 42.7548 114.592 49.3735 111.009 55.0994C107.425 60.8253 102.303 65.4274 96.2272 68.3796C90.1517 71.3319 83.3681 72.5153 76.6518 71.7944C69.9355 71.0735 63.5576 68.4776 58.247 64.3032C62.5318 60.934 65.9957 56.636 68.3775 51.7332C70.7593 46.8303 71.9968 41.4507 71.9968 36C71.9968 30.5493 70.7593 25.1697 68.3775 20.2668C65.9957 15.364 62.5318 11.066 58.247 7.69681C63.5576 3.52244 69.9355 0.92646 76.6518 0.205597C83.3681 -0.515267 90.1517 0.668074 96.2272 3.62036C102.303 6.57265 107.425 11.1747 111.009 16.9006C114.592 22.6265 116.492 29.2452 116.492 36Z" fill="#1E4786"/>
<path d="M143.331 34C145.164 35.3 146.081 37.15 146.081 39.55C146.081 40.65 145.814 41.6833 145.281 42.65C144.781 43.6167 144.081 44.4667 143.181 45.2C142.281 45.9333 141.231 46.5167 140.031 46.95C138.831 47.35 137.548 47.55 136.181 47.55C135.148 47.55 134.131 47.4167 133.131 47.15C132.164 46.8833 131.264 46.5167 130.431 46.05C129.598 45.5833 128.864 45.0333 128.231 44.4C127.631 43.7333 127.181 43 126.881 42.2C127.648 41.8333 128.498 41.4333 129.431 41C130.364 40.5333 131.181 40.1167 131.881 39.75C132.181 40.25 132.648 40.7167 133.281 41.15C133.914 41.55 134.781 41.75 135.881 41.75C137.014 41.75 137.848 41.4833 138.381 40.95C138.914 40.4167 139.181 39.9167 139.181 39.45C139.181 39.1167 138.998 38.8167 138.631 38.55C138.264 38.25 137.848 38.0167 137.381 37.85C136.714 37.5833 136.164 37.45 135.731 37.45C135.298 37.4167 134.798 37.3167 134.231 37.15C132.431 36.7167 131.048 36.15 130.081 35.45C129.148 34.7167 128.464 33.9833 128.031 33.25C127.598 32.5167 127.348 31.8167 127.281 31.15C127.248 30.4833 127.231 29.95 127.231 29.55C127.231 28.4833 127.464 27.4667 127.931 26.5C128.398 25.5333 129.031 24.7 129.831 24C130.664 23.2667 131.614 22.6833 132.681 22.25C133.781 21.8167 134.948 21.6 136.181 21.6C137.214 21.6 138.198 21.75 139.131 22.05C140.064 22.35 140.914 22.7667 141.681 23.3C142.448 23.8333 143.098 24.4667 143.631 25.2C144.198 25.9333 144.614 26.75 144.881 27.65L139.531 29.45C139.331 28.85 138.914 28.3667 138.281 28C137.681 27.6333 137.031 27.45 136.331 27.45C135.631 27.45 135.064 27.6833 134.631 28.15C134.198 28.6167 133.981 29.0833 133.981 29.55C133.981 30.1167 134.181 30.5667 134.581 30.9C135.014 31.2 135.481 31.4167 135.981 31.55C136.348 31.6167 136.698 31.6833 137.031 31.75C137.398 31.7833 137.748 31.8333 138.081 31.9C139.248 32.1667 140.248 32.4667 141.081 32.8C141.948 33.1333 142.698 33.5333 143.331 34ZM165.049 21.5C166.682 21.5 168.199 21.85 169.599 22.55C171.032 23.2167 172.266 24.15 173.299 25.35C174.332 26.5167 175.132 27.9 175.699 29.5C176.299 31.0667 176.599 32.75 176.599 34.55V47H169.849V42.45C169.849 41.1833 169.849 39.8833 169.849 38.55C169.882 37.1833 169.899 36.0167 169.899 35.05C169.899 34.1167 169.749 33.2 169.449 32.3C169.149 31.4 168.732 30.6167 168.199 29.95C167.666 29.25 167.032 28.7 166.299 28.3C165.599 27.8667 164.849 27.65 164.049 27.65C163.282 27.65 162.549 27.8 161.849 28.1C161.149 28.3667 160.532 28.7833 159.999 29.35C159.466 29.8833 159.032 30.5667 158.699 31.4C158.399 32.2333 158.249 33.2167 158.249 34.35V47H151.299V10.5H158.249V24.1C159.116 23.2667 160.099 22.6333 161.199 22.2C162.332 21.7333 163.616 21.5 165.049 21.5ZM188.716 47H181.816V22.2H188.716V47ZM185.266 18.8C184.199 18.8 183.299 18.4333 182.566 17.7C181.832 16.9667 181.466 16.0667 181.466 15C181.466 13.9333 181.832 13.0333 182.566 12.3C183.299 11.5333 184.199 11.15 185.266 11.15C186.332 11.15 187.232 11.5333 187.966 12.3C188.699 13.0333 189.066 13.9333 189.066 15C189.066 16.0667 188.699 16.9667 187.966 17.7C187.232 18.4333 186.332 18.8 185.266 18.8ZM207.612 21.5C209.479 21.5 211.179 21.8833 212.712 22.65C214.246 23.3833 215.562 24.3667 216.662 25.6C217.762 26.8 218.612 28.2 219.212 29.8C219.812 31.3667 220.112 32.9833 220.112 34.65C220.112 35.65 219.979 36.7167 219.712 37.85H202.012C202.679 38.9833 203.629 39.95 204.862 40.75C206.096 41.5167 207.429 41.9 208.862 41.9C210.296 41.9 211.546 41.7833 212.612 41.55C213.712 41.3167 214.746 41.0167 215.712 40.65L218.012 44.9C216.779 45.7667 215.362 46.4333 213.762 46.9C212.196 47.3667 210.512 47.6 208.712 47.6C206.746 47.6 204.912 47.2667 203.212 46.6C201.512 45.9 200.029 44.9667 198.762 43.8C197.496 42.6333 196.496 41.25 195.762 39.65C195.029 38.05 194.662 36.35 194.662 34.55C194.662 32.7833 194.996 31.1167 195.662 29.55C196.329 27.95 197.246 26.5667 198.412 25.4C199.612 24.2 200.996 23.25 202.562 22.55C204.129 21.85 205.812 21.5 207.612 21.5ZM213.262 32.5C212.862 31.0667 212.146 29.9 211.112 29C210.079 28.1 208.912 27.65 207.612 27.65C206.279 27.65 205.062 28.1 203.962 29C202.896 29.9 202.162 31.0667 201.762 32.5H213.262ZM226.799 10.45H233.699V47H226.799V10.45ZM264.427 10.5V47H258.527L257.527 44.85C256.76 45.65 255.693 46.3167 254.327 46.85C252.993 47.35 251.593 47.6 250.127 47.6C248.36 47.6 246.727 47.2667 245.227 46.6C243.727 45.9 242.427 44.9667 241.327 43.8C240.26 42.6 239.41 41.2167 238.777 39.65C238.177 38.05 237.877 36.35 237.877 34.55C237.877 32.75 238.177 31.0667 238.777 29.5C239.41 27.9 240.26 26.5167 241.327 25.35C242.427 24.15 243.727 23.2167 245.227 22.55C246.727 21.85 248.36 21.5 250.127 21.5C251.693 21.5 253.077 21.6833 254.277 22.05C255.51 22.4167 256.593 23.0333 257.527 23.9V10.5H264.427ZM257.527 34.65C257.527 33.35 257.36 32.2667 257.027 31.4C256.693 30.5 256.227 29.7833 255.627 29.25C255.027 28.6833 254.327 28.2833 253.527 28.05C252.76 27.7833 251.927 27.65 251.027 27.65C250.127 27.65 249.277 27.8333 248.477 28.2C247.71 28.5667 247.027 29.0667 246.427 29.7C245.86 30.3 245.41 31.0333 245.077 31.9C244.743 32.7333 244.577 33.6167 244.577 34.55C244.577 35.5167 244.743 36.4167 245.077 37.25C245.41 38.0833 245.86 38.8167 246.427 39.45C247.027 40.05 247.71 40.5333 248.477 40.9C249.277 41.2667 250.127 41.45 251.027 41.45C252.827 41.45 254.343 40.9 255.577 39.8C256.843 38.6667 257.493 36.95 257.527 34.65Z" fill="black"/>
</svg>
