<svg width="7" height="2" viewBox="0 0 7 2" fill="none" xmlns="http://www.w3.org/2000/svg">
<g clip-path="url(#clip0)">
<path d="M3.00538 0.932075V0.723378C3.00538 0.64477 2.9553 0.591901 2.8746 0.591204C2.85161 0.589707 2.82865 0.594404 2.80809 0.604804C2.78753 0.615205 2.77014 0.630928 2.75773 0.650336C2.74642 0.631507 2.73024 0.616076 2.7109 0.605669C2.69156 0.595263 2.66976 0.590266 2.64782 0.591204C2.62869 0.590243 2.60964 0.594295 2.59256 0.602958C2.57548 0.611621 2.56096 0.624596 2.55043 0.640597V0.599553H2.47808V0.932075H2.55112V0.747724C2.55112 0.689986 2.58313 0.659383 2.63252 0.659383C2.68051 0.659383 2.70487 0.690683 2.70487 0.747032V0.932075H2.77791V0.747724C2.77791 0.689986 2.8113 0.659383 2.8593 0.659383C2.90869 0.659383 2.93234 0.690683 2.93234 0.747032V0.932075H3.00538ZM4.08642 0.599553H3.96816V0.498686H3.89512V0.599553H3.82764V0.66564H3.89512V0.81729C3.89512 0.894511 3.92503 0.940425 4.0106 0.940425C4.04256 0.94052 4.07391 0.931598 4.10103 0.914685L4.08017 0.852769C4.06076 0.864343 4.03874 0.870806 4.01616 0.871554C3.97999 0.871554 3.96816 0.849289 3.96816 0.815903V0.66564H4.08642V0.599553ZM4.70347 0.591204C4.68583 0.590684 4.66837 0.594934 4.65295 0.603504C4.63752 0.612075 4.62469 0.624648 4.61582 0.6399V0.599553H4.54416V0.932075H4.61651V0.745638C4.61651 0.690683 4.64016 0.660074 4.68747 0.660074C4.70294 0.659861 4.71831 0.662699 4.73269 0.668424L4.75495 0.60025C4.73842 0.594335 4.72101 0.591276 4.70347 0.591204ZM3.7706 0.62599C3.72965 0.601638 3.68256 0.589564 3.63495 0.591204C3.55077 0.591204 3.49651 0.631552 3.49651 0.697638C3.49651 0.751902 3.53686 0.785293 3.61129 0.795729L3.64538 0.800597C3.68503 0.806158 3.70382 0.816593 3.70382 0.835379C3.70382 0.861118 3.67738 0.875726 3.62799 0.875726C3.58826 0.876868 3.5493 0.864617 3.51738 0.840944L3.48329 0.897287C3.52543 0.926722 3.57591 0.941844 3.62729 0.940425C3.72329 0.940425 3.77894 0.895202 3.77894 0.831899C3.77894 0.773463 3.73512 0.742854 3.66277 0.73242L3.62869 0.72755C3.59738 0.723378 3.57234 0.717121 3.57234 0.694861C3.57234 0.67051 3.59599 0.655903 3.63564 0.655903C3.67206 0.65645 3.70773 0.666267 3.73929 0.684425L3.7706 0.62599ZM5.70868 0.591204C5.69104 0.590684 5.67359 0.594933 5.65816 0.603504C5.64274 0.612074 5.62991 0.624648 5.62103 0.6399V0.599553H5.54938V0.932075H5.62173V0.745638C5.62173 0.690683 5.64538 0.660074 5.69268 0.660074C5.70816 0.659861 5.72352 0.662698 5.7379 0.668424L5.76016 0.60025C5.74364 0.594335 5.72623 0.591275 5.70868 0.591204ZM4.77651 0.765811C4.77651 0.866685 4.84677 0.940425 4.95391 0.940425C4.99734 0.942606 5.04002 0.92846 5.07355 0.900768L5.03877 0.842333C5.01376 0.8614 4.98326 0.87189 4.95181 0.872244C4.89408 0.871554 4.85164 0.829813 4.85164 0.765811C4.85164 0.701816 4.89408 0.660074 4.95181 0.659383C4.98326 0.659738 5.01376 0.670228 5.03877 0.689294L5.07355 0.63086C5.04002 0.603169 4.99734 0.589023 4.95391 0.591204C4.84677 0.591204 4.77651 0.664943 4.77651 0.765811ZM5.45407 0.765811V0.599553H5.38173V0.6399C5.36938 0.623986 5.3534 0.611261 5.33512 0.602789C5.31685 0.594317 5.29681 0.590345 5.27668 0.591204C5.18347 0.591204 5.11042 0.664253 5.11042 0.765811C5.11042 0.867377 5.18347 0.940425 5.27668 0.940425C5.29681 0.941284 5.31685 0.937311 5.33512 0.928839C5.3534 0.920367 5.36938 0.907642 5.38173 0.891728V0.932075H5.45407V0.765811ZM5.18485 0.765811C5.18485 0.707377 5.22312 0.659383 5.28573 0.659383C5.34555 0.659383 5.3859 0.705291 5.3859 0.765811C5.3859 0.826332 5.34555 0.872244 5.28573 0.872244C5.22312 0.872244 5.18485 0.824246 5.18485 0.765811ZM4.31182 0.591204C4.21442 0.591204 4.14625 0.66216 4.14625 0.765811C4.14625 0.871554 4.21721 0.940425 4.31669 0.940425C4.36632 0.942166 4.41486 0.925574 4.45303 0.893814L4.41755 0.840248C4.39008 0.862264 4.35606 0.874502 4.32086 0.875029C4.27425 0.875029 4.23182 0.853467 4.22138 0.793636H4.46834C4.46903 0.784596 4.46973 0.775556 4.46973 0.765811C4.46903 0.66216 4.40503 0.591204 4.31182 0.591204ZM4.31042 0.655903C4.35703 0.655903 4.38695 0.685117 4.3946 0.736597H4.22208C4.22973 0.688597 4.25894 0.655903 4.31042 0.655903ZM6.12538 0.765811V0.465991H6.05303V0.6399C6.04068 0.623987 6.0247 0.611262 6.00642 0.60279C5.98815 0.594318 5.96811 0.590345 5.94799 0.591204C5.85477 0.591204 5.78172 0.664253 5.78172 0.765811C5.78172 0.867377 5.85477 0.940425 5.94799 0.940425C5.96811 0.941284 5.98815 0.937311 6.00642 0.928838C6.0247 0.920366 6.04068 0.907641 6.05303 0.891728V0.932075H6.12538V0.765811ZM6.20993 0.90139C6.2128 0.901371 6.21564 0.901934 6.21828 0.903045C6.22083 0.904107 6.22314 0.905643 6.22511 0.90757C6.22707 0.909495 6.22863 0.911779 6.22971 0.914296C6.23082 0.916882 6.2314 0.919666 6.2314 0.922481C6.2314 0.925295 6.23082 0.928079 6.22971 0.930665C6.22862 0.933171 6.22706 0.935444 6.22511 0.937363C6.22314 0.939291 6.22082 0.940834 6.21828 0.941913C6.21565 0.943043 6.2128 0.943616 6.20993 0.943596C6.2057 0.943639 6.20156 0.942436 6.19801 0.940136C6.19446 0.937836 6.19167 0.934542 6.18999 0.930665C6.18888 0.928078 6.18831 0.925294 6.18831 0.922481C6.18831 0.919667 6.18888 0.916883 6.18999 0.914296C6.19217 0.909188 6.19628 0.905145 6.20142 0.903045C6.20412 0.90193 6.20701 0.901368 6.20993 0.90139ZM6.20993 0.938941C6.21212 0.938957 6.21429 0.938517 6.21629 0.937649C6.21822 0.936809 6.21998 0.935616 6.22146 0.934129C6.22453 0.931031 6.22625 0.926849 6.22625 0.92249C6.22625 0.918132 6.22453 0.91395 6.22146 0.910852C6.21998 0.909369 6.21822 0.908185 6.21629 0.907364C6.21428 0.906509 6.21212 0.906077 6.20993 0.906096C6.2077 0.906079 6.20549 0.90651 6.20344 0.907364C6.20096 0.908418 6.19878 0.910062 6.19709 0.912152C6.19539 0.914242 6.19424 0.916716 6.19372 0.919356C6.1932 0.921996 6.19334 0.924723 6.19412 0.927298C6.1949 0.929873 6.19629 0.932219 6.19819 0.934129C6.1997 0.935628 6.20148 0.936823 6.20344 0.937649C6.20549 0.938516 6.2077 0.938955 6.20993 0.938941ZM6.21117 0.912613C6.21325 0.912478 6.21531 0.913073 6.21699 0.914296C6.21766 0.914848 6.2182 0.915549 6.21855 0.916343C6.21891 0.917137 6.21907 0.918002 6.21903 0.918871C6.21906 0.919616 6.21893 0.920357 6.21864 0.921047C6.21836 0.921737 6.21794 0.922361 6.21741 0.922878C6.21612 0.924018 6.21449 0.9247 6.21277 0.924818L6.21919 0.932214H6.21417L6.20822 0.924868H6.20631V0.932214H6.20212V0.912613H6.21117ZM6.20631 0.916286V0.92151H6.21112C6.21204 0.921557 6.21296 0.921332 6.21376 0.920861C6.21408 0.920645 6.21434 0.920347 6.21452 0.919998C6.21469 0.919648 6.21477 0.91926 6.21474 0.918871C6.21476 0.91849 6.21468 0.91811 6.21451 0.917769C6.21434 0.917429 6.21408 0.917139 6.21376 0.916931C6.21296 0.916464 6.21204 0.916241 6.21112 0.916286H6.20631ZM5.85616 0.765811C5.85616 0.707377 5.89442 0.659383 5.95703 0.659383C6.01685 0.659383 6.0572 0.705291 6.0572 0.765811C6.0572 0.826332 6.01685 0.872244 5.95703 0.872244C5.89442 0.872244 5.85616 0.824246 5.85616 0.765811ZM3.41304 0.765811V0.599553H3.34069V0.6399C3.32834 0.623986 3.31236 0.611261 3.29408 0.602789C3.27581 0.594317 3.25577 0.590345 3.23564 0.591204C3.14243 0.591204 3.06938 0.664253 3.06938 0.765811C3.06938 0.867377 3.14243 0.940425 3.23564 0.940425C3.25577 0.941284 3.27581 0.937312 3.29408 0.92884C3.31236 0.920367 3.32834 0.907642 3.34069 0.891728V0.932075H3.41304V0.765811ZM3.14382 0.765811C3.14382 0.707377 3.18208 0.659383 3.24469 0.659383C3.30451 0.659383 3.34486 0.705291 3.34486 0.765811C3.34486 0.826332 3.30451 0.872244 3.24469 0.872244C3.18208 0.872244 3.14382 0.824246 3.14382 0.765811Z" fill="#231F20"/>
<path d="M1.55501 0.37055H1.11751V1.15675H1.55501V0.37055Z" fill="#FF5F00"/>
<path d="M1.14529 0.76365C1.14522 0.687933 1.16238 0.613193 1.19547 0.545088C1.22855 0.476983 1.2767 0.417297 1.33626 0.37055C1.2625 0.312573 1.17392 0.276518 1.08063 0.266506C0.987352 0.256493 0.893134 0.272928 0.80875 0.313932C0.724367 0.354935 0.653221 0.418853 0.603447 0.498379C0.553672 0.577906 0.527276 0.669831 0.527276 0.76365C0.527276 0.857469 0.553672 0.949395 0.603447 1.02892C0.653221 1.10845 0.724367 1.17236 0.80875 1.21337C0.893134 1.25437 0.987352 1.27081 1.08063 1.26079C1.17392 1.25078 1.2625 1.21473 1.33626 1.15675C1.2767 1.11 1.22855 1.05032 1.19547 0.982212C1.16238 0.914107 1.14522 0.839367 1.14529 0.76365Z" fill="#EB001B"/>
<path d="M2.14522 0.76365C2.14523 0.857467 2.11883 0.949393 2.06906 1.02892C2.01929 1.10845 1.94815 1.17236 1.86376 1.21337C1.77938 1.25437 1.68517 1.27081 1.59188 1.26079C1.4986 1.25078 1.41002 1.21473 1.33626 1.15675C1.39577 1.10996 1.44388 1.05026 1.47696 0.982166C1.51004 0.914071 1.52723 0.839355 1.52723 0.76365C1.52723 0.687945 1.51004 0.613228 1.47696 0.545134C1.44388 0.477039 1.39577 0.417344 1.33626 0.37055C1.41002 0.312573 1.4986 0.276517 1.59188 0.266505C1.68517 0.256493 1.77938 0.272928 1.86376 0.313932C1.94815 0.354936 2.01929 0.418855 2.06906 0.498381C2.11883 0.577907 2.14523 0.669833 2.14522 0.76365Z" fill="#F79E1B"/>
<path d="M2.09752 1.07348V1.05738H2.10401V1.0541H2.08748V1.05738H2.09398V1.07348H2.09752ZM2.12961 1.07348V1.05407H2.12454L2.11872 1.06742L2.11289 1.05407H2.10782V1.07348H2.1114V1.05884L2.11686 1.07146H2.12057L2.12604 1.05881V1.07348H2.12961Z" fill="#F79E1B"/>
</g>
<defs>
<clipPath id="clip0">
<rect width="6.65268" height="1.5273" fill="white"/>
</clipPath>
</defs>
</svg>
