<svg width="181" height="49" viewBox="0 0 181 49" fill="none" xmlns="http://www.w3.org/2000/svg">
<path d="M50.1628 5.21771H28.8088V43.5913H50.1628V5.21771Z" fill="#5A626D"/>
<path d="M30.1647 24.4045C30.1613 20.7088 30.9988 17.0609 32.6137 13.7367C34.2286 10.4125 36.5786 7.49937 39.4858 5.21769C35.8856 2.38788 31.5619 0.628063 27.0089 0.139381C22.4558 -0.349301 17.8572 0.452854 13.7385 2.4542C9.61979 4.45554 6.14726 7.57532 3.71781 11.4569C1.28836 15.3385 0 19.8253 0 24.4045C0 28.9837 1.28836 33.4705 3.71781 37.3521C6.14726 41.2337 9.61979 44.3535 13.7385 46.3548C17.8572 48.3561 22.4558 49.1583 27.0089 48.6696C31.5619 48.1809 35.8856 46.4211 39.4858 43.5913C36.5786 41.3096 34.2286 38.3964 32.6137 35.0723C30.9988 31.7481 30.1614 28.1002 30.1647 24.4045Z" fill="#7F7F7F"/>
<path d="M76.6421 39.527V38.7414H76.9589V38.5813H76.1521V38.7414H76.469V39.527H76.6421ZM78.2084 39.527V38.5798H77.9611L77.6766 39.2313L77.3921 38.5798H77.1447V39.527H77.3193V38.8125L77.586 39.4285H77.7671L78.0339 38.8109V39.527H78.2084Z" fill="#00A2E5"/>
<path d="M78.9704 24.4045C78.9706 28.9836 77.6824 33.4704 75.2531 37.352C72.8237 41.2336 69.3513 44.3534 65.2327 46.3547C61.1141 48.3561 56.5155 49.1583 51.9625 48.6696C47.4095 48.1809 43.0859 46.4211 39.4858 43.5913C42.3905 41.3073 44.7387 38.3937 46.3533 35.07C47.9679 31.7464 48.8069 28.0996 48.8069 24.4045C48.8069 20.7094 47.9679 17.0626 46.3533 13.7389C44.7387 10.4153 42.3905 7.50167 39.4858 5.21769C43.0859 2.38787 47.4095 0.62805 51.9625 0.139374C56.5155 -0.349301 61.1141 0.452889 65.2327 2.45425C69.3513 4.45562 72.8237 7.57539 75.2531 11.457C77.6824 15.3386 78.9706 19.8254 78.9704 24.4045Z" fill="#1E4786"/>
<path d="M97.1646 23.5431C98.4074 24.4244 99.0288 25.6785 99.0288 27.3055C99.0288 28.0512 98.848 28.7517 98.4865 29.407C98.1475 30.0623 97.673 30.6385 97.0629 31.1356C96.4528 31.6327 95.741 32.0282 94.9275 32.3219C94.114 32.5931 93.244 32.7287 92.3176 32.7287C91.6171 32.7287 90.9279 32.6383 90.25 32.4575C89.5947 32.2767 88.9846 32.0282 88.4196 31.7118C87.8547 31.3955 87.3576 31.0226 86.9283 30.5933C86.5215 30.1414 86.2165 29.6442 86.0131 29.1019C86.5328 28.8533 87.109 28.5822 87.7417 28.2884C88.3744 27.9721 88.9281 27.6896 89.4026 27.441C89.606 27.78 89.9223 28.0963 90.3517 28.3901C90.781 28.6613 91.3685 28.7968 92.1142 28.7968C92.8825 28.7968 93.4474 28.6161 93.809 28.2545C94.1705 27.893 94.3513 27.554 94.3513 27.2377C94.3513 27.0117 94.227 26.8083 93.9784 26.6276C93.7299 26.4242 93.4474 26.266 93.1311 26.153C92.6791 25.9723 92.3063 25.8819 92.0125 25.8819C91.7188 25.8593 91.3798 25.7915 90.9957 25.6785C89.7754 25.3847 88.8377 25.0006 88.1824 24.5261C87.5497 24.0289 87.0864 23.5318 86.7927 23.0347C86.4989 22.5375 86.3294 22.063 86.2842 21.6111C86.2617 21.1591 86.2504 20.7976 86.2504 20.5264C86.2504 19.8033 86.4085 19.1141 86.7249 18.4588C87.0412 17.8035 87.4706 17.2386 88.0129 16.7641C88.5778 16.2669 89.2218 15.8715 89.9449 15.5777C90.6906 15.284 91.4815 15.1371 92.3176 15.1371C93.0181 15.1371 93.6847 15.2388 94.3174 15.4422C94.9501 15.6455 95.5263 15.928 96.046 16.2895C96.5658 16.6511 97.0064 17.0804 97.368 17.5776C97.7521 18.0747 98.0346 18.6283 98.2153 19.2384L94.5886 20.4586C94.453 20.0519 94.1705 19.7242 93.7412 19.4757C93.3344 19.2271 92.8938 19.1028 92.4193 19.1028C91.9447 19.1028 91.5606 19.261 91.2668 19.5774C90.9731 19.8937 90.8262 20.2101 90.8262 20.5264C90.8262 20.9106 90.9618 21.2156 91.2329 21.4416C91.5267 21.645 91.843 21.7919 92.182 21.8822C92.4306 21.9274 92.6678 21.9726 92.8938 22.0178C93.1424 22.0404 93.3796 22.0743 93.6056 22.1195C94.3965 22.3003 95.0744 22.5037 95.6393 22.7296C96.2268 22.9556 96.7352 23.2267 97.1646 23.5431ZM111.887 15.0693C112.994 15.0693 114.023 15.3066 114.972 15.7811C115.943 16.2331 116.779 16.8658 117.48 17.6792C118.18 18.4701 118.723 19.4079 119.107 20.4925C119.514 21.5546 119.717 22.6957 119.717 23.9159V32.3558H115.141V29.2714C115.141 28.4127 115.141 27.5314 115.141 26.6276C115.164 25.7011 115.175 24.9102 115.175 24.2549C115.175 23.6222 115.073 23.0008 114.87 22.3907C114.667 21.7806 114.384 21.2495 114.023 20.7976C113.661 20.3231 113.232 19.9502 112.735 19.6791C112.26 19.3853 111.752 19.2384 111.209 19.2384C110.69 19.2384 110.192 19.3401 109.718 19.5435C109.243 19.7242 108.825 20.0067 108.464 20.3909C108.102 20.7524 107.809 21.2156 107.583 21.7806C107.379 22.3455 107.278 23.0121 107.278 23.7804V32.3558H102.566V7.61239H107.278V16.8319C107.865 16.2669 108.532 15.8376 109.277 15.5438C110.046 15.2275 110.916 15.0693 111.887 15.0693ZM127.931 32.3558H123.254V15.5438H127.931V32.3558ZM125.592 13.239C124.869 13.239 124.259 12.9904 123.762 12.4933C123.265 11.9962 123.016 11.386 123.016 10.663C123.016 9.93985 123.265 9.32974 123.762 8.83261C124.259 8.31289 124.869 8.05303 125.592 8.05303C126.315 8.05303 126.925 8.31289 127.423 8.83261C127.92 9.32974 128.168 9.93985 128.168 10.663C128.168 11.386 127.92 11.9962 127.423 12.4933C126.925 12.9904 126.315 13.239 125.592 13.239ZM140.741 15.0693C142.006 15.0693 143.159 15.3292 144.198 15.8489C145.238 16.346 146.13 17.0126 146.876 17.8487C147.622 18.6622 148.198 19.6113 148.605 20.6959C149.011 21.758 149.215 22.8539 149.215 23.9837C149.215 24.6616 149.124 25.3847 148.944 26.153H136.945C137.397 26.9213 138.041 27.5766 138.877 28.1189C139.713 28.6387 140.617 28.8985 141.588 28.8985C142.56 28.8985 143.407 28.8194 144.131 28.6613C144.876 28.5031 145.577 28.2997 146.232 28.0512L147.791 30.9322C146.955 31.5198 145.995 31.9717 144.91 32.288C143.848 32.6044 142.707 32.7626 141.487 32.7626C140.153 32.7626 138.911 32.5366 137.758 32.0847C136.606 31.6101 135.6 30.9774 134.742 30.1865C133.883 29.3957 133.205 28.4579 132.708 27.3733C132.211 26.2886 131.962 25.1362 131.962 23.9159C131.962 22.7183 132.188 21.5885 132.64 20.5264C133.092 19.4418 133.713 18.504 134.504 17.7131C135.318 16.8997 136.256 16.2556 137.318 15.7811C138.38 15.3066 139.521 15.0693 140.741 15.0693ZM144.571 22.5262C144.3 21.5546 143.814 20.7637 143.114 20.1536C142.413 19.5435 141.622 19.2384 140.741 19.2384C139.837 19.2384 139.012 19.5435 138.267 20.1536C137.544 20.7637 137.046 21.5546 136.775 22.5262H144.571ZM153.747 7.57849H158.425V32.3558H153.747V7.57849ZM179.256 7.61239V32.3558H175.256L174.578 30.8983C174.058 31.4407 173.335 31.8926 172.409 32.2541C171.505 32.5931 170.556 32.7626 169.562 32.7626C168.364 32.7626 167.257 32.5366 166.24 32.0847C165.223 31.6101 164.342 30.9774 163.596 30.1865C162.873 29.3731 162.297 28.4353 161.867 27.3733C161.461 26.2886 161.257 25.1362 161.257 23.9159C161.257 22.6957 161.461 21.5546 161.867 20.4925C162.297 19.4079 162.873 18.4701 163.596 17.6792C164.342 16.8658 165.223 16.2331 166.24 15.7811C167.257 15.3066 168.364 15.0693 169.562 15.0693C170.624 15.0693 171.561 15.1936 172.375 15.4422C173.211 15.6907 173.945 16.1088 174.578 16.6963V7.61239H179.256ZM174.578 23.9837C174.578 23.1025 174.465 22.3681 174.239 21.7806C174.013 21.1704 173.697 20.6846 173.29 20.3231C172.883 19.9389 172.409 19.6678 171.867 19.5096C171.347 19.3288 170.782 19.2384 170.172 19.2384C169.562 19.2384 168.985 19.3627 168.443 19.6113C167.923 19.8598 167.46 20.1988 167.053 20.6281C166.669 21.0349 166.364 21.532 166.138 22.1195C165.912 22.6844 165.799 23.2832 165.799 23.9159C165.799 24.5713 165.912 25.1814 166.138 25.7463C166.364 26.3112 166.669 26.8083 167.053 27.2377C167.46 27.6444 167.923 27.9721 168.443 28.2206C168.985 28.4692 169.562 28.5935 170.172 28.5935C171.392 28.5935 172.42 28.2206 173.256 27.4749C174.115 26.7066 174.556 25.5429 174.578 23.9837Z" fill="black"/>
</svg>
