<svg width="29" height="25" viewBox="0 0 29 25" fill="none" xmlns="http://www.w3.org/2000/svg">
<path d="M27.7571 10H1.24286C0.0994284 10 0 11.1175 0 12.5C0 13.8825 0.0994284 15 1.24286 15H27.7571C28.9006 15 29 13.8825 29 12.5C29 11.1175 28.9006 10 27.7571 10V10ZM27.7571 20H1.24286C0.0994284 20 0 21.1175 0 22.5C0 23.8825 0.0994284 25 1.24286 25H27.7571C28.9006 25 29 23.8825 29 22.5C29 21.1175 28.9006 20 27.7571 20V20ZM1.24286 5H27.7571C28.9006 5 29 3.8825 29 2.5C29 1.1175 28.9006 0 27.7571 0H1.24286C0.0994284 0 0 1.1175 0 2.5C0 3.8825 0.0994284 5 1.24286 5Z" fill="black"/>
</svg>
