<svg width="30" height="30" viewBox="0 0 30 30" fill="none" xmlns="http://www.w3.org/2000/svg">
<path d="M28.3333 30H1.66667C0.747778 30 0 29.3038 0 28.4483V26.8966C0 22.1881 3.26222 18.0083 8.32056 15.9786C6.11167 14.2728 4.80778 11.7848 4.80778 9.1019C4.80778 4.0831 9.38 0 15 0C20.62 0 25.1922 4.0831 25.1922 9.10138C25.1922 11.7848 23.8878 14.2722 21.68 15.9781C26.7378 18.0083 30 22.1881 30 26.8966V28.4483C30 29.3038 29.2522 30 28.3333 30ZM2.22222 27.931H27.7778V26.8966C27.7778 22.4814 24.2072 18.6083 18.8933 17.2588C18.4483 17.1455 18.1244 16.7886 18.08 16.3614C18.035 15.9341 18.2778 15.5255 18.6917 15.3347C21.3306 14.1134 22.97 11.7253 22.97 9.1019C22.97 5.22362 19.3944 2.06897 15 2.06897C10.605 2.06897 7.03 5.22362 7.03 9.10138C7.03 11.7248 8.66945 14.1134 11.3089 15.3341C11.7217 15.525 11.965 15.9336 11.9206 16.3609C11.8756 16.7881 11.5517 17.1455 11.1072 17.2583C5.79278 18.6083 2.22222 22.4814 2.22222 26.8966V27.931Z" fill="#454141"/>
</svg>

