<svg width="34" height="34" viewBox="0 0 34 34" fill="none" xmlns="http://www.w3.org/2000/svg">
<path d="M19.2667 34H14.7333C13.7961 34 13.0333 33.2373 13.0333 32.3V30.0107C12.1935 29.7551 11.3804 29.4174 10.6063 29.0043L9.14373 30.4657C8.48357 31.1253 7.3729 31.1157 6.73143 30.4753L3.52523 27.2697C3.2045 26.9478 3.02827 26.5211 3.02827 26.0667C3.02827 25.6122 3.20507 25.1855 3.5258 24.8648L4.99687 23.3937C4.5815 22.6157 4.24433 21.8031 3.98933 20.9672L1.7 20.9667C0.762733 20.9667 0 20.2039 0 19.2667V14.7333C0 13.7961 0.762733 13.0333 1.7 13.0333H3.98933C4.24603 12.1924 4.58263 11.3798 4.99573 10.6063L3.5258 9.13523C2.86337 8.47223 2.86337 7.39443 3.52523 6.732L6.73143 3.5258C7.3746 2.8832 8.49377 2.88377 9.13523 3.52523L10.6069 4.99687C11.3849 4.5815 12.1969 4.24433 13.0333 3.98933V1.7C13.0333 0.762733 13.7961 0 14.7333 0H19.2667C20.2039 0 20.9667 0.762733 20.9667 1.7V3.98933C21.807 4.24547 22.6196 4.58207 23.3937 4.99573L24.8648 3.5258C25.5068 2.88377 26.6265 2.88377 27.2686 3.5258L30.4742 6.73143C31.1366 7.39443 31.1366 8.4728 30.4748 9.13523L29.0031 10.6069C29.4185 11.3849 29.7557 12.1969 30.0107 13.0333H32.3C33.2373 13.0333 34 13.7961 34 14.7333V19.2667C34 20.2039 33.2373 20.9667 32.3 20.9667H30.0107C29.7545 21.8065 29.4174 22.6196 29.0043 23.3931L30.4657 24.8557C30.7955 25.1855 30.9723 25.6122 30.9723 26.0667C30.9723 26.5211 30.7955 26.9478 30.4748 27.2686L27.2691 30.4742C26.6271 31.1162 25.5074 31.1162 24.8653 30.4742L23.3943 29.0031C22.6157 29.4185 21.8036 29.7557 20.9678 30.0107L20.9667 32.3C20.9667 33.2373 20.2039 34 19.2667 34ZM15.3 31.7333H18.7L18.7006 29.5823C18.7006 28.8139 19.2208 28.1384 19.9648 27.9412C20.8953 27.6902 21.7968 27.3156 22.6412 26.8294C23.2747 26.4594 24.1604 26.5642 24.6942 27.0991L26.0667 28.471L28.471 26.0667L27.098 24.6925C26.5523 24.1474 26.4435 23.3002 26.8339 22.6338C27.3156 21.7974 27.6896 20.8958 27.9418 19.9603C28.1373 19.2208 28.8133 18.7 29.5834 18.7H31.7333V15.3L29.5823 15.2994C28.8144 15.2994 28.1384 14.7798 27.9412 14.0352C27.6896 13.1053 27.315 12.2032 26.8288 11.3588C26.4424 10.6992 26.5523 9.85207 27.0986 9.3058L28.471 7.93333L26.0667 5.52897L24.6925 6.902C24.3723 7.22217 23.9456 7.3984 23.4923 7.3984C23.4923 7.3984 23.4923 7.3984 23.4917 7.3984C23.1914 7.3984 22.8945 7.31793 22.6344 7.16607C21.798 6.6844 20.897 6.3104 19.9603 6.05823C19.2208 5.86273 18.7 5.1867 18.7 4.4166V2.26667H15.3L15.2994 4.41717C15.2994 5.1867 14.7792 5.86217 14.0341 6.0588C13.1053 6.30983 12.2032 6.6844 11.3588 7.1706C10.723 7.5412 9.84017 7.43523 9.30637 6.902L7.93333 5.52897L5.52897 7.93333L6.902 9.30693C7.44657 9.85207 7.55537 10.6987 7.16663 11.3645C6.68497 12.2009 6.31097 13.1025 6.05823 14.0392C5.8633 14.7792 5.18727 15.3 4.4166 15.3H2.26667V18.7L4.41717 18.7006C5.1867 18.7006 5.86217 19.2213 6.0588 19.9659C6.30983 20.8953 6.6844 21.7968 7.1706 22.6412C7.5565 23.3008 7.4477 24.1474 6.902 24.6936L5.52897 26.0667L7.93333 28.471L9.30693 27.098C9.8396 26.5653 10.7145 26.4526 11.3662 26.8339C12.202 27.3156 13.1036 27.6896 14.0397 27.9418C14.7798 28.1378 15.3 28.8133 15.3 29.5834V31.7333Z" fill="#454141"/>
<path d="M17.0001 23.2333C13.5632 23.2333 10.7667 20.4368 10.7667 16.9999C10.7667 13.5631 13.5632 10.7666 17.0001 10.7666C20.4369 10.7666 23.2334 13.5631 23.2334 16.9999C23.2334 20.4368 20.4369 23.2333 17.0001 23.2333ZM17.0001 13.0333C14.8127 13.0333 13.0334 14.8126 13.0334 16.9999C13.0334 19.1867 14.8127 20.9666 17.0001 20.9666C19.1868 20.9666 20.9667 19.1867 20.9667 16.9999C20.9667 14.8126 19.1868 13.0333 17.0001 13.0333Z" fill="#454141"/>
</svg>

