<svg width="357" height="164" viewBox="0 0 357 164" fill="none" xmlns="http://www.w3.org/2000/svg">
<g filter="url(#filter0_dd)">
<mask id="mask0" mask-type="alpha" maskUnits="userSpaceOnUse" x="10" y="14" width="332" height="136">
<rect x="10" y="14" width="332" height="136" rx="30" fill="white"/>
</mask>
<g mask="url(#mask0)">
<g filter="url(#filter1_d)">
<rect x="10" y="14" width="332" height="136" rx="30" fill="white"/>
</g>
<rect y="14" width="32" height="142" fill="#0659A5"/>
</g>
<path d="M47.2188 42.1797H48.7969V43.3594H47.2188V46H45.7656V43.3594H40.5859V42.5078L45.6797 34.625H47.2188V42.1797ZM42.2266 42.1797H45.7656V36.6016L45.5938 36.9141L42.2266 42.1797ZM60.2344 41.1484C60.2344 42.8411 59.9453 44.099 59.3672 44.9219C58.7891 45.7448 57.8854 46.1562 56.6562 46.1562C55.4427 46.1562 54.5443 45.7552 53.9609 44.9531C53.3776 44.1458 53.0755 42.9427 53.0547 41.3438V39.4141C53.0547 37.7422 53.3438 36.5 53.9219 35.6875C54.5 34.875 55.4062 34.4688 56.6406 34.4688C57.8646 34.4688 58.7656 34.862 59.3438 35.6484C59.9219 36.4297 60.2188 37.638 60.2344 39.2734V41.1484ZM58.7891 39.1719C58.7891 37.9479 58.6172 37.0573 58.2734 36.5C57.9297 35.9375 57.3854 35.6562 56.6406 35.6562C55.901 35.6562 55.362 35.9349 55.0234 36.4922C54.6849 37.0495 54.5104 37.9062 54.5 39.0625V41.375C54.5 42.6042 54.6771 43.513 55.0312 44.1016C55.3906 44.6849 55.9323 44.9766 56.6562 44.9766C57.3698 44.9766 57.8984 44.7005 58.2422 44.1484C58.5911 43.5964 58.7734 42.7266 58.7891 41.5391V39.1719ZM70.7578 34.6172V35.8438H70.4922C69.3672 35.8646 68.4714 36.1979 67.8047 36.8438C67.138 37.4896 66.7526 38.3984 66.6484 39.5703C67.2474 38.8828 68.0651 38.5391 69.1016 38.5391C70.0911 38.5391 70.8802 38.888 71.4688 39.5859C72.0625 40.2839 72.3594 41.1849 72.3594 42.2891C72.3594 43.4609 72.0391 44.3984 71.3984 45.1016C70.763 45.8047 69.9089 46.1562 68.8359 46.1562C67.7474 46.1562 66.8646 45.7396 66.1875 44.9062C65.5104 44.0677 65.1719 42.9896 65.1719 41.6719V41.1172C65.1719 39.0234 65.6172 37.4245 66.5078 36.3203C67.4036 35.2109 68.7344 34.6432 70.5 34.6172H70.7578ZM68.8594 39.7422C68.3646 39.7422 67.9089 39.8906 67.4922 40.1875C67.0755 40.4844 66.7865 40.8568 66.625 41.3047V41.8359C66.625 42.7734 66.8359 43.5286 67.2578 44.1016C67.6797 44.6745 68.2057 44.9609 68.8359 44.9609C69.487 44.9609 69.9974 44.7214 70.3672 44.2422C70.7422 43.763 70.9297 43.1354 70.9297 42.3594C70.9297 41.5781 70.7396 40.9479 70.3594 40.4688C69.9844 39.9844 69.4844 39.7422 68.8594 39.7422ZM84.2031 41.1484C84.2031 42.8411 83.9141 44.099 83.3359 44.9219C82.7578 45.7448 81.8542 46.1562 80.625 46.1562C79.4115 46.1562 78.513 45.7552 77.9297 44.9531C77.3464 44.1458 77.0443 42.9427 77.0234 41.3438V39.4141C77.0234 37.7422 77.3125 36.5 77.8906 35.6875C78.4688 34.875 79.375 34.4688 80.6094 34.4688C81.8333 34.4688 82.7344 34.862 83.3125 35.6484C83.8906 36.4297 84.1875 37.638 84.2031 39.2734V41.1484ZM82.7578 39.1719C82.7578 37.9479 82.5859 37.0573 82.2422 36.5C81.8984 35.9375 81.3542 35.6562 80.6094 35.6562C79.8698 35.6562 79.3307 35.9349 78.9922 36.4922C78.6536 37.0495 78.4792 37.9062 78.4688 39.0625V41.375C78.4688 42.6042 78.6458 43.513 79 44.1016C79.3594 44.6849 79.901 44.9766 80.625 44.9766C81.3385 44.9766 81.8672 44.7005 82.2109 44.1484C82.5599 43.5964 82.7422 42.7266 82.7578 41.5391V39.1719ZM101.562 41C101.26 41.3594 100.898 41.6484 100.477 41.8672C100.06 42.0859 99.6016 42.1953 99.1016 42.1953C98.4453 42.1953 97.8724 42.0339 97.3828 41.7109C96.8984 41.388 96.5234 40.9349 96.2578 40.3516C95.9922 39.763 95.8594 39.1146 95.8594 38.4062C95.8594 37.6458 96.0026 36.9609 96.2891 36.3516C96.5807 35.7422 96.9922 35.276 97.5234 34.9531C98.0547 34.6302 98.6745 34.4688 99.3828 34.4688C100.508 34.4688 101.393 34.8906 102.039 35.7344C102.69 36.5729 103.016 37.7188 103.016 39.1719V39.5938C103.016 41.8073 102.578 43.4245 101.703 44.4453C100.828 45.4609 99.5078 45.9818 97.7422 46.0078H97.4609V44.7891H97.7656C98.9583 44.7682 99.875 44.4583 100.516 43.8594C101.156 43.2552 101.505 42.3021 101.562 41ZM99.3359 41C99.8203 41 100.266 40.8516 100.672 40.5547C101.083 40.2578 101.383 39.8906 101.57 39.4531V38.875C101.57 37.9271 101.365 37.1562 100.953 36.5625C100.542 35.9688 100.021 35.6719 99.3906 35.6719C98.7552 35.6719 98.2448 35.9167 97.8594 36.4062C97.474 36.8906 97.2812 37.5312 97.2812 38.3281C97.2812 39.1042 97.4661 39.7448 97.8359 40.25C98.2109 40.75 98.7109 41 99.3359 41ZM115.141 41.1484C115.141 42.8411 114.852 44.099 114.273 44.9219C113.695 45.7448 112.792 46.1562 111.562 46.1562C110.349 46.1562 109.451 45.7552 108.867 44.9531C108.284 44.1458 107.982 42.9427 107.961 41.3438V39.4141C107.961 37.7422 108.25 36.5 108.828 35.6875C109.406 34.875 110.312 34.4688 111.547 34.4688C112.771 34.4688 113.672 34.862 114.25 35.6484C114.828 36.4297 115.125 37.638 115.141 39.2734V41.1484ZM113.695 39.1719C113.695 37.9479 113.523 37.0573 113.18 36.5C112.836 35.9375 112.292 35.6562 111.547 35.6562C110.807 35.6562 110.268 35.9349 109.93 36.4922C109.591 37.0495 109.417 37.9062 109.406 39.0625V41.375C109.406 42.6042 109.583 43.513 109.938 44.1016C110.297 44.6849 110.839 44.9766 111.562 44.9766C112.276 44.9766 112.805 44.7005 113.148 44.1484C113.497 43.5964 113.68 42.7266 113.695 41.5391V39.1719ZM122.094 39.6094H123.18C123.862 39.599 124.398 39.4193 124.789 39.0703C125.18 38.7214 125.375 38.25 125.375 37.6562C125.375 36.3229 124.711 35.6562 123.383 35.6562C122.758 35.6562 122.258 35.8359 121.883 36.1953C121.513 36.5495 121.328 37.0208 121.328 37.6094H119.883C119.883 36.7083 120.211 35.9609 120.867 35.3672C121.529 34.7682 122.367 34.4688 123.383 34.4688C124.456 34.4688 125.297 34.7526 125.906 35.3203C126.516 35.888 126.82 36.6771 126.82 37.6875C126.82 38.1823 126.659 38.6615 126.336 39.125C126.018 39.5885 125.583 39.9349 125.031 40.1641C125.656 40.362 126.138 40.6901 126.477 41.1484C126.82 41.6068 126.992 42.1667 126.992 42.8281C126.992 43.849 126.659 44.6589 125.992 45.2578C125.326 45.8568 124.458 46.1562 123.391 46.1562C122.323 46.1562 121.453 45.8672 120.781 45.2891C120.115 44.7109 119.781 43.9479 119.781 43H121.234C121.234 43.599 121.43 44.0781 121.82 44.4375C122.211 44.7969 122.734 44.9766 123.391 44.9766C124.089 44.9766 124.622 44.7943 124.992 44.4297C125.362 44.0651 125.547 43.5417 125.547 42.8594C125.547 42.1979 125.344 41.6901 124.938 41.3359C124.531 40.9818 123.945 40.7995 123.18 40.7891H122.094V39.6094ZM139.43 46H131.977V44.9609L135.914 40.5859C136.497 39.9245 136.898 39.388 137.117 38.9766C137.341 38.5599 137.453 38.1302 137.453 37.6875C137.453 37.0938 137.273 36.6068 136.914 36.2266C136.555 35.8464 136.076 35.6562 135.477 35.6562C134.758 35.6562 134.198 35.862 133.797 36.2734C133.401 36.6797 133.203 37.2474 133.203 37.9766H131.758C131.758 36.9297 132.094 36.0833 132.766 35.4375C133.443 34.7917 134.346 34.4688 135.477 34.4688C136.534 34.4688 137.37 34.7474 137.984 35.3047C138.599 35.8568 138.906 36.5938 138.906 37.5156C138.906 38.6354 138.193 39.9688 136.766 41.5156L133.719 44.8203H139.43V46ZM158.273 35.4375L153.562 46H152.047L156.742 35.8125H150.586V34.625H158.273V35.4375ZM163.578 40.2969L164.156 34.625H169.984V35.9609H165.383L165.039 39.0625C165.596 38.7344 166.229 38.5703 166.938 38.5703C167.974 38.5703 168.797 38.9141 169.406 39.6016C170.016 40.2839 170.32 41.2083 170.32 42.375C170.32 43.5469 170.003 44.4714 169.367 45.1484C168.737 45.8203 167.854 46.1562 166.719 46.1562C165.714 46.1562 164.893 45.8776 164.258 45.3203C163.622 44.763 163.26 43.9922 163.172 43.0078H164.539C164.628 43.6589 164.859 44.151 165.234 44.4844C165.609 44.8125 166.104 44.9766 166.719 44.9766C167.391 44.9766 167.917 44.7474 168.297 44.2891C168.682 43.8307 168.875 43.1979 168.875 42.3906C168.875 41.6302 168.667 41.0208 168.25 40.5625C167.839 40.099 167.289 39.8672 166.602 39.8672C165.971 39.8672 165.477 40.0052 165.117 40.2812L164.734 40.5938L163.578 40.2969ZM177 39.6094H178.086C178.768 39.599 179.305 39.4193 179.695 39.0703C180.086 38.7214 180.281 38.25 180.281 37.6562C180.281 36.3229 179.617 35.6562 178.289 35.6562C177.664 35.6562 177.164 35.8359 176.789 36.1953C176.419 36.5495 176.234 37.0208 176.234 37.6094H174.789C174.789 36.7083 175.117 35.9609 175.773 35.3672C176.435 34.7682 177.273 34.4688 178.289 34.4688C179.362 34.4688 180.203 34.7526 180.812 35.3203C181.422 35.888 181.727 36.6771 181.727 37.6875C181.727 38.1823 181.565 38.6615 181.242 39.125C180.924 39.5885 180.49 39.9349 179.938 40.1641C180.562 40.362 181.044 40.6901 181.383 41.1484C181.727 41.6068 181.898 42.1667 181.898 42.8281C181.898 43.849 181.565 44.6589 180.898 45.2578C180.232 45.8568 179.365 46.1562 178.297 46.1562C177.229 46.1562 176.359 45.8672 175.688 45.2891C175.021 44.7109 174.688 43.9479 174.688 43H176.141C176.141 43.599 176.336 44.0781 176.727 44.4375C177.117 44.7969 177.641 44.9766 178.297 44.9766C178.995 44.9766 179.529 44.7943 179.898 44.4297C180.268 44.0651 180.453 43.5417 180.453 42.8594C180.453 42.1979 180.25 41.6901 179.844 41.3359C179.438 40.9818 178.852 40.7995 178.086 40.7891H177V39.6094ZM194.336 46H186.883V44.9609L190.82 40.5859C191.404 39.9245 191.805 39.388 192.023 38.9766C192.247 38.5599 192.359 38.1302 192.359 37.6875C192.359 37.0938 192.18 36.6068 191.82 36.2266C191.461 35.8464 190.982 35.6562 190.383 35.6562C189.664 35.6562 189.104 35.862 188.703 36.2734C188.307 36.6797 188.109 37.2474 188.109 37.9766H186.664C186.664 36.9297 187 36.0833 187.672 35.4375C188.349 34.7917 189.253 34.4688 190.383 34.4688C191.44 34.4688 192.276 34.7474 192.891 35.3047C193.505 35.8568 193.812 36.5938 193.812 37.5156C193.812 38.6354 193.099 39.9688 191.672 41.5156L188.625 44.8203H194.336V46ZM207.938 39.6094H209.023C209.706 39.599 210.242 39.4193 210.633 39.0703C211.023 38.7214 211.219 38.25 211.219 37.6562C211.219 36.3229 210.555 35.6562 209.227 35.6562C208.602 35.6562 208.102 35.8359 207.727 36.1953C207.357 36.5495 207.172 37.0208 207.172 37.6094H205.727C205.727 36.7083 206.055 35.9609 206.711 35.3672C207.372 34.7682 208.211 34.4688 209.227 34.4688C210.299 34.4688 211.141 34.7526 211.75 35.3203C212.359 35.888 212.664 36.6771 212.664 37.6875C212.664 38.1823 212.503 38.6615 212.18 39.125C211.862 39.5885 211.427 39.9349 210.875 40.1641C211.5 40.362 211.982 40.6901 212.32 41.1484C212.664 41.6068 212.836 42.1667 212.836 42.8281C212.836 43.849 212.503 44.6589 211.836 45.2578C211.169 45.8568 210.302 46.1562 209.234 46.1562C208.167 46.1562 207.297 45.8672 206.625 45.2891C205.958 44.7109 205.625 43.9479 205.625 43H207.078C207.078 43.599 207.273 44.0781 207.664 44.4375C208.055 44.7969 208.578 44.9766 209.234 44.9766C209.932 44.9766 210.466 44.7943 210.836 44.4297C211.206 44.0651 211.391 43.5417 211.391 42.8594C211.391 42.1979 211.188 41.6901 210.781 41.3359C210.375 40.9818 209.789 40.7995 209.023 40.7891H207.938V39.6094ZM223.922 42.1797H225.5V43.3594H223.922V46H222.469V43.3594H217.289V42.5078L222.383 34.625H223.922V42.1797ZM218.93 42.1797H222.469V36.6016L222.297 36.9141L218.93 42.1797ZM237.148 35.4375L232.438 46H230.922L235.617 35.8125H229.461V34.625H237.148V35.4375ZM247.891 42.1797H249.469V43.3594H247.891V46H246.438V43.3594H241.258V42.5078L246.352 34.625H247.891V42.1797ZM242.898 42.1797H246.438V36.6016L246.266 36.9141L242.898 42.1797Z" fill="black"/>
<path d="M298.802 101.707H285.161V125.293H298.802V101.707Z" fill="#FF5F00"/>
<path d="M286.028 113.5C286.025 111.228 286.56 108.986 287.592 106.943C288.624 104.9 290.125 103.109 291.982 101.707C289.682 99.9677 286.92 98.886 284.012 98.5857C281.103 98.2853 278.165 98.7783 275.534 100.008C272.903 101.239 270.685 103.156 269.133 105.542C267.581 107.928 266.758 110.685 266.758 113.5C266.758 116.315 267.581 119.072 269.133 121.458C270.685 123.844 272.903 125.761 275.534 126.992C278.165 128.222 281.103 128.715 284.012 128.414C286.92 128.114 289.682 127.032 291.982 125.293C290.125 123.891 288.624 122.1 287.592 120.057C286.56 118.014 286.025 115.771 286.028 113.5Z" fill="#EB001B"/>
<path d="M317.205 113.5C317.205 116.314 316.382 119.072 314.83 121.458C313.279 123.844 311.06 125.761 308.429 126.991C305.798 128.222 302.861 128.715 299.952 128.414C297.044 128.114 294.282 127.032 291.982 125.293C293.837 123.889 295.337 122.098 296.369 120.055C297.4 118.013 297.936 115.771 297.936 113.5C297.936 111.229 297.4 108.987 296.369 106.945C295.337 104.902 293.837 103.111 291.982 101.707C294.282 99.9677 297.044 98.886 299.952 98.5857C302.861 98.2853 305.798 98.7784 308.429 100.008C311.06 101.239 313.279 103.156 314.83 105.542C316.382 107.928 317.205 110.685 317.205 113.5Z" fill="#F79E1B"/>
<path d="M315.718 122.795V122.312H315.92V122.214H315.405V122.312H315.607V122.795H315.718ZM316.718 122.795V122.213H316.56L316.379 122.613L316.197 122.213H316.039V122.795H316.15V122.356L316.321 122.734H316.436L316.607 122.355V122.795H316.718Z" fill="#F79E1B"/>
<path d="M201.702 96.013C201.406 96.0129 201.122 96.1318 200.912 96.3435C200.703 96.5553 200.585 96.8425 200.584 97.1422V105.055H221.243L211.835 96.0154L201.702 96.013ZM222 107.449C222 107.301 221.971 107.154 221.915 107.017C221.859 106.88 221.777 106.756 221.673 106.651C221.569 106.546 221.446 106.463 221.311 106.407C221.175 106.35 221.03 106.321 220.884 106.322H213.065V127.228L221.996 117.705L222 107.449ZM210.696 127.987C210.991 127.986 211.275 127.867 211.483 127.655C211.692 127.443 211.809 127.156 211.809 126.857V118.945H191.151L200.558 127.985L210.696 127.987ZM190.397 116.552C190.397 116.7 190.426 116.847 190.482 116.984C190.538 117.121 190.62 117.246 190.723 117.351C190.827 117.456 190.95 117.539 191.086 117.596C191.221 117.653 191.366 117.682 191.513 117.682H199.332V96.774L190.398 106.295L190.397 116.552Z" fill="#0659A5"/>
<path d="M95.7062 99.828V109.483H82.4138V99.828L77.5743 99.8262V124.17H82.4138V113.711H95.7062V124.17H100.555V99.828H95.7062ZM160.108 99.828V124.165L181.348 124.164L178.656 119.881H164.964V113.711H178.222V109.584H164.964V104.012H178.634L181.271 99.828H160.108ZM59.581 99.825C54.544 99.825 52 102.921 52 107.43V116.518C52 121.734 55.2766 124.17 59.5549 124.17L74.7405 124.167L71.9273 119.719H60.4922C58.0641 119.719 57.0064 118.83 57.0064 116.079V107.835C57.0064 105.174 57.896 104.136 60.5569 104.136H72.0466L74.7493 99.8253L59.581 99.825ZM138.864 99.8179C135.954 99.8179 132.976 101.586 132.976 106.137V107.306C132.976 112.046 135.845 113.858 138.712 113.871H148.785C149.831 113.871 150.681 114.047 150.681 115.837L150.68 117.906C150.654 119.51 149.859 119.881 148.749 119.881H135.499L132.784 124.164H149.059C152.986 124.164 155.65 122.189 155.65 117.622V115.945C155.65 111.531 153.175 109.448 149.336 109.448H139.718C138.651 109.448 137.909 109.151 137.909 107.553L137.908 105.871C137.908 104.509 138.419 104.012 139.661 104.012L152.279 104.007L154.918 99.8133L138.864 99.8179ZM114.621 99.8317L103.215 124.167H108.607L110.828 119.141H123.222L125.436 124.167H130.849L119.417 99.8314L114.621 99.8317ZM117.011 104.883L121.395 114.999H112.656L117.011 104.883Z" fill="#010101"/>
</g>
<defs>
<filter id="filter0_dd" x="0" y="0" width="357" height="164" filterUnits="userSpaceOnUse" color-interpolation-filters="sRGB">
<feFlood flood-opacity="0" result="BackgroundImageFix"/>
<feColorMatrix in="SourceAlpha" type="matrix" values="0 0 0 0 0 0 0 0 0 0 0 0 0 0 0 0 0 0 127 0"/>
<feOffset dx="5" dy="-4"/>
<feGaussianBlur stdDeviation="5"/>
<feColorMatrix type="matrix" values="0 0 0 0 0 0 0 0 0 0 0 0 0 0 0 0 0 0 0.25 0"/>
<feBlend mode="normal" in2="BackgroundImageFix" result="effect1_dropShadow"/>
<feColorMatrix in="SourceAlpha" type="matrix" values="0 0 0 0 0 0 0 0 0 0 0 0 0 0 0 0 0 0 127 0"/>
<feOffset dy="4"/>
<feGaussianBlur stdDeviation="5"/>
<feColorMatrix type="matrix" values="0 0 0 0 0 0 0 0 0 0 0 0 0 0 0 0 0 0 0.25 0"/>
<feBlend mode="normal" in2="effect1_dropShadow" result="effect2_dropShadow"/>
<feBlend mode="normal" in="SourceGraphic" in2="effect2_dropShadow" result="shape"/>
</filter>
<filter id="filter1_d" x="6" y="14" width="340" height="144" filterUnits="userSpaceOnUse" color-interpolation-filters="sRGB">
<feFlood flood-opacity="0" result="BackgroundImageFix"/>
<feColorMatrix in="SourceAlpha" type="matrix" values="0 0 0 0 0 0 0 0 0 0 0 0 0 0 0 0 0 0 127 0"/>
<feOffset dy="4"/>
<feGaussianBlur stdDeviation="2"/>
<feColorMatrix type="matrix" values="0 0 0 0 0 0 0 0 0 0 0 0 0 0 0 0 0 0 0.25 0"/>
<feBlend mode="normal" in2="BackgroundImageFix" result="effect1_dropShadow"/>
<feBlend mode="normal" in="SourceGraphic" in2="effect1_dropShadow" result="shape"/>
</filter>
</defs>
</svg>
