<svg width="34" height="34" viewBox="0 0 34 34" fill="none" xmlns="http://www.w3.org/2000/svg">
<path d="M32.1786 34H21.2791C20.7922 34 20.3344 33.8088 19.9908 33.4631C19.652 33.1223 19.4577 32.6502 19.4577 32.1677V26.6126H14.5423V32.1677C14.5423 32.6514 14.3474 33.1235 14.008 33.4643C13.6662 33.8088 13.2084 34 12.7209 34H1.82143C0.817214 34 0 33.1779 0 32.1677V14.7385C0 14.1985 0.234964 13.6892 0.644179 13.3398L15.824 0.419376C16.4797 -0.139487 17.5203 -0.140097 18.1772 0.419376L33.3558 13.3386C33.7656 13.6904 34 14.1992 34 14.7385V32.1677C34 33.1779 33.1828 34 32.1786 34ZM21.8863 31.5569H31.5714V15.0213L17 2.61879L2.42857 15.0213V31.5569H12.1137V26.0018C12.1137 25.5206 12.308 25.0484 12.6462 24.7076C12.9929 24.3601 13.4494 24.1695 13.9351 24.1695H20.0649C20.5445 24.1695 21.0138 24.365 21.3526 24.7064C21.6914 25.0478 21.8863 25.5193 21.8863 26.0018V31.5569Z" fill="#454141"/>
</svg>
